<svg width="71" height="70" viewBox="0 0 71 70" fill="none" xmlns="http://www.w3.org/2000/svg">
<path fill-rule="evenodd" clip-rule="evenodd" d="M27.8773 8.49722C30.0838 7.26485 32.6266 6.56251 35.3334 6.56251C38.0402 6.56251 40.5829 7.26485 42.7895 8.49722L44.4036 6.88286C44.8308 6.45571 45.5234 6.45571 45.9506 6.88286C46.3776 7.31 46.3776 8.00251 45.9506 8.42965L44.6547 9.72552C48.2978 12.5247 50.6459 16.9256 50.6459 21.875H20.0209C20.0209 16.9256 22.3689 12.5247 26.012 9.72552L24.7161 8.42965C24.2891 8.00251 24.2891 7.31 24.7161 6.88286C25.1433 6.45571 25.8359 6.45571 26.2631 6.88286L27.8773 8.49722ZM30.9584 15.3125C30.9584 16.5206 29.979 17.5 28.7709 17.5C27.5627 17.5 26.5834 16.5206 26.5834 15.3125C26.5834 14.1044 27.5627 13.125 28.7709 13.125C29.979 13.125 30.9584 14.1044 30.9584 15.3125ZM41.8959 17.5C43.104 17.5 44.0834 16.5206 44.0834 15.3125C44.0834 14.1044 43.104 13.125 41.8959 13.125C40.6877 13.125 39.7084 14.1044 39.7084 15.3125C39.7084 16.5206 40.6877 17.5 41.8959 17.5Z" fill="url(#paint0_linear_1368_275)"/>
<path d="M11.2709 27.3438C11.2709 25.5316 12.7399 24.0625 14.5521 24.0625C16.3643 24.0625 17.8334 25.5316 17.8334 27.3438V40.4688C17.8334 42.2809 16.3643 43.75 14.5521 43.75C12.7399 43.75 11.2709 42.2809 11.2709 40.4688V27.3438Z" fill="url(#paint1_linear_1368_275)"/>
<path d="M26.5834 52.5V60.1562C26.5834 61.9684 28.0525 63.4375 29.8646 63.4375C31.6767 63.4375 33.1459 61.9684 33.1459 60.1562V52.5H37.5209V60.1562C37.5209 61.9684 38.99 63.4375 40.8021 63.4375C42.6142 63.4375 44.0834 61.9684 44.0834 60.1562V52.5H46.2709C48.6872 52.5 50.6459 50.5413 50.6459 48.125V24.0625H20.0209V48.125C20.0209 50.5413 21.9796 52.5 24.3959 52.5H26.5834Z" fill="url(#paint2_linear_1368_275)"/>
<path d="M52.8334 27.3438C52.8334 25.5316 54.3025 24.0625 56.1146 24.0625C57.9267 24.0625 59.3959 25.5316 59.3959 27.3438V40.4688C59.3959 42.2809 57.9267 43.75 56.1146 43.75C54.3025 43.75 52.8334 42.2809 52.8334 40.4688V27.3438Z" fill="url(#paint3_linear_1368_275)"/>
<defs>
<linearGradient id="paint0_linear_1368_275" x1="35.3334" y1="6.5625" x2="35.3334" y2="21.875" gradientUnits="userSpaceOnUse">
<stop stop-color="#41A66C"/>
<stop offset="1" stop-color="#2D9AA6"/>
</linearGradient>
<linearGradient id="paint1_linear_1368_275" x1="14.5521" y1="24.0625" x2="14.5521" y2="43.75" gradientUnits="userSpaceOnUse">
<stop stop-color="#41A66C"/>
<stop offset="1" stop-color="#2D9AA6"/>
</linearGradient>
<linearGradient id="paint2_linear_1368_275" x1="35.3334" y1="24.0625" x2="35.3334" y2="63.4375" gradientUnits="userSpaceOnUse">
<stop stop-color="#41A66C"/>
<stop offset="1" stop-color="#2D9AA6"/>
</linearGradient>
<linearGradient id="paint3_linear_1368_275" x1="56.1146" y1="24.0625" x2="56.1146" y2="43.75" gradientUnits="userSpaceOnUse">
<stop stop-color="#41A66C"/>
<stop offset="1" stop-color="#2D9AA6"/>
</linearGradient>
</defs>
</svg>
