<svg width="30" height="30" viewBox="0 0 30 30" fill="none" xmlns="http://www.w3.org/2000/svg">
<g clip-path="url(#clip0_1350_47)">
<path d="M28.8944 18.1749L27.8596 17.5774C28.0334 16.7131 28.1213 15.8475 28.1213 15C28.1213 14.1402 28.0348 13.2738 27.864 12.42L28.8944 11.825C29.2136 11.6408 29.4419 11.3433 29.5372 10.9873C29.6326 10.6314 29.5837 10.2596 29.3994 9.94045L26.5814 5.05949C26.3971 4.74035 26.0996 4.51204 25.7437 4.41669C25.3876 4.32135 25.0159 4.37025 24.6967 4.55454L23.6654 5.14996C22.3628 4.00391 20.8296 3.11695 19.1977 2.56509V1.37965C19.1977 0.618904 18.5788 0 17.818 0H12.182C11.4213 0 10.8024 0.618904 10.8024 1.37965V2.56515C9.17907 3.11477 7.64807 4.00292 6.34058 5.15348L5.30326 4.55454C4.98406 4.37025 4.61226 4.32129 4.25631 4.41669C3.90036 4.51209 3.60289 4.74035 3.4186 5.05949L0.600597 9.94045C0.416312 10.2596 0.367407 10.6314 0.46275 10.9873C0.558092 11.3433 0.786409 11.6408 1.10555 11.825L2.14034 12.4225C1.96668 13.2869 1.87868 14.1524 1.87868 15C1.87868 15.8597 1.96522 16.7261 2.13606 17.5799L1.10561 18.1749C0.446781 18.5553 0.220284 19.4007 0.600597 20.0595L3.4186 24.9405C3.79897 25.5993 4.64437 25.8258 5.30326 25.4455L6.33447 24.85C7.63721 25.9961 9.17026 26.8831 10.8024 27.435V28.6204C10.8024 29.3811 11.4213 30 12.182 30H17.818C18.5788 30 19.1977 29.3811 19.1977 28.6204V27.4349C20.821 26.8852 22.352 25.9971 23.6595 24.8466L24.6968 25.4455C25.3555 25.8258 26.201 25.5993 26.5814 24.9405L29.3994 20.0595C29.7797 19.4007 29.5532 18.5553 28.8944 18.1749ZM28.6367 19.6192L25.8187 24.5001C25.6812 24.7385 25.3754 24.8204 25.1371 24.6828L23.8225 23.9238C23.6555 23.8273 23.445 23.8509 23.3034 23.9819C21.9594 25.2249 20.3423 26.1628 18.6271 26.6941C18.4427 26.7513 18.317 26.9217 18.317 27.1147V28.6204C18.317 28.8955 18.0932 29.1194 17.818 29.1194H12.182C11.9068 29.1194 11.683 28.8955 11.683 28.6204V27.1148C11.683 26.9218 11.5573 26.7513 11.373 26.6942C9.64721 26.1595 8.02815 25.2228 6.69071 23.9854C6.60729 23.9082 6.49991 23.8683 6.3916 23.8683C6.3161 23.8683 6.24019 23.8877 6.17156 23.9273L4.86295 24.6828C4.62459 24.8203 4.31884 24.7384 4.18128 24.5001L1.36328 19.6192C1.22572 19.3809 1.30768 19.0751 1.54592 18.9375L2.85347 18.1826C3.02044 18.0862 3.10527 17.8924 3.06283 17.7043C2.8614 16.8116 2.75931 15.9016 2.75931 15C2.75931 14.1135 2.86293 13.2045 3.06735 12.2981C3.10974 12.1101 3.0249 11.9163 2.85799 11.8199L1.54592 11.0624C1.4305 10.9958 1.34796 10.8882 1.31343 10.7594C1.27897 10.6307 1.29664 10.4962 1.36328 10.3808L4.18128 5.4998C4.24792 5.38438 4.35553 5.30178 4.48434 5.26732C4.61302 5.2328 4.74758 5.25053 4.863 5.31716L6.1776 6.07614C6.34469 6.17266 6.5551 6.14906 6.6967 6.01808C8.04077 4.77505 9.65778 3.83718 11.373 3.30581C11.5573 3.24869 11.683 3.0782 11.683 2.88523V1.37965C11.683 1.10448 11.9069 0.880626 12.1821 0.880626H17.8181C18.0932 0.880626 18.3171 1.10448 18.3171 1.37965V2.88523C18.3171 3.0782 18.4428 3.24869 18.6271 3.30581C20.3528 3.84041 21.9719 4.7771 23.3094 6.01456C23.451 6.1456 23.6614 6.16914 23.8285 6.07268L25.1371 5.31716C25.2526 5.25053 25.3871 5.2328 25.5158 5.26732C25.6445 5.30184 25.7522 5.38438 25.8189 5.4998L28.6369 10.3808C28.7035 10.4962 28.7212 10.6307 28.6867 10.7594C28.6522 10.8882 28.5696 10.9958 28.4542 11.0624L27.1467 11.8174C26.9797 11.9138 26.8949 12.1076 26.9373 12.2956C27.1387 13.1883 27.2408 14.0982 27.2408 15C27.2408 15.8865 27.1372 16.7955 26.9328 17.7018C26.8904 17.8899 26.9752 18.0836 27.1421 18.18L28.4542 18.9375C28.6924 19.0751 28.7744 19.3809 28.6367 19.6192Z" fill="url(#paint0_linear_1350_47)"/>
<path d="M15 6.10565C10.0957 6.10565 6.10571 10.0957 6.10571 15C6.10571 19.9043 10.0957 23.8943 15 23.8943C19.9044 23.8943 23.8944 19.9043 23.8944 15C23.8944 10.0957 19.9044 6.10565 15 6.10565ZM15 23.0137C10.5813 23.0137 6.98634 19.4187 6.98634 15C6.98634 10.5812 10.5813 6.98628 15 6.98628C19.4188 6.98628 23.0137 10.5812 23.0137 15C23.0137 19.4187 19.4188 23.0137 15 23.0137Z" fill="url(#paint1_linear_1350_47)"/>
<path d="M16.6438 12.681H15C14.7568 12.681 14.5597 12.8782 14.5597 13.1213V16.8787C14.5597 17.1219 14.7568 17.319 15 17.319C15.2432 17.319 15.4403 17.1219 15.4403 16.8787V15.91H16.6438C17.5341 15.91 18.2583 15.1858 18.2583 14.2955C18.2583 13.4053 17.5341 12.681 16.6438 12.681ZM16.6438 15.0294H15.4403V13.5617H16.6438C17.0485 13.5617 17.3777 13.8908 17.3777 14.2955C17.3777 14.7002 17.0485 15.0294 16.6438 15.0294Z" fill="url(#paint2_linear_1350_47)"/>
<path d="M12.5943 12.9668C12.5298 12.7949 12.3655 12.681 12.182 12.681H11.7123C11.5288 12.681 11.3645 12.7949 11.3001 12.9668L9.89108 16.7241C9.80566 16.9518 9.92108 17.2056 10.1488 17.291C10.3764 17.3764 10.6302 17.261 10.7156 17.0333L10.9607 16.3797H12.9336L13.1787 17.0333C13.245 17.21 13.4128 17.3191 13.591 17.3191C13.6424 17.3191 13.6946 17.3101 13.7455 17.291C13.9732 17.2056 14.0886 16.9518 14.0032 16.7241L12.5943 12.9668ZM11.2909 15.499L11.9472 13.7491L12.6034 15.499H11.2909Z" fill="url(#paint3_linear_1350_47)"/>
<path d="M19.227 12.681C18.9838 12.681 18.7867 12.8782 18.7867 13.1213V16.8787C18.7867 17.1219 18.9838 17.319 19.227 17.319C19.4702 17.319 19.6673 17.1219 19.6673 16.8787V13.1213C19.6673 12.8782 19.4702 12.681 19.227 12.681Z" fill="url(#paint4_linear_1350_47)"/>
<path d="M18.1498 5.12524C18.4554 5.22263 18.76 5.33576 19.0552 5.4614C19.1114 5.48535 19.1699 5.49668 19.2274 5.49668C19.3986 5.49668 19.5615 5.39617 19.6327 5.22874C19.728 5.005 19.6238 4.74639 19.4001 4.65116C19.0796 4.51478 18.749 4.39197 18.4172 4.28623C18.1856 4.21238 17.9378 4.34036 17.864 4.57203C17.7902 4.80369 17.9182 5.05138 18.1498 5.12524Z" fill="url(#paint5_linear_1350_47)"/>
<path d="M5.89725 19.9552C5.78078 19.7418 5.51324 19.6631 5.29984 19.7796C5.08637 19.8961 5.0077 20.1635 5.12418 20.377C5.30688 20.7119 5.50913 21.0413 5.7253 21.3561C5.81066 21.4804 5.94845 21.5472 6.08864 21.5472C6.17453 21.5472 6.2613 21.5221 6.33751 21.4698C6.538 21.3321 6.5889 21.058 6.45123 20.8576C6.25203 20.5674 6.06563 20.2639 5.89725 19.9552Z" fill="url(#paint6_linear_1350_47)"/>
<path d="M14.0982 25.3233C11.7388 25.12 9.49921 24.0975 7.79202 22.4442C7.61731 22.275 7.33856 22.2795 7.16942 22.4542C7.00028 22.6289 7.00469 22.9076 7.1794 23.0768C9.03165 24.8706 11.462 25.98 14.0226 26.2007C14.0355 26.2018 14.0482 26.2023 14.0609 26.2023C14.287 26.2023 14.4793 26.0292 14.4991 25.7998C14.52 25.5576 14.3405 25.3442 14.0982 25.3233Z" fill="url(#paint7_linear_1350_47)"/>
<path d="M21.3361 5.71158C21.1353 5.57438 20.8614 5.62593 20.7242 5.82665C20.587 6.02743 20.6385 6.30143 20.8392 6.43863C22.8849 7.83665 24.3646 9.91698 25.0059 12.2963C25.0588 12.4928 25.2366 12.6221 25.4308 12.6221C25.4687 12.6221 25.5072 12.6172 25.5456 12.6069C25.7804 12.5436 25.9194 12.302 25.8562 12.0672C25.1603 9.48518 23.5551 7.22808 21.3361 5.71158Z" fill="url(#paint8_linear_1350_47)"/>
</g>
<defs>
<linearGradient id="paint0_linear_1350_47" x1="15" y1="0" x2="15" y2="30" gradientUnits="userSpaceOnUse">
<stop stop-color="#41A66C"/>
<stop offset="1" stop-color="#2D9AA6"/>
</linearGradient>
<linearGradient id="paint1_linear_1350_47" x1="15" y1="6.10565" x2="15" y2="23.8943" gradientUnits="userSpaceOnUse">
<stop stop-color="#41A66C"/>
<stop offset="1" stop-color="#2D9AA6"/>
</linearGradient>
<linearGradient id="paint2_linear_1350_47" x1="16.409" y1="12.681" x2="16.409" y2="17.319" gradientUnits="userSpaceOnUse">
<stop stop-color="#41A66C"/>
<stop offset="1" stop-color="#2D9AA6"/>
</linearGradient>
<linearGradient id="paint3_linear_1350_47" x1="11.9471" y1="12.681" x2="11.9471" y2="17.3192" gradientUnits="userSpaceOnUse">
<stop stop-color="#41A66C"/>
<stop offset="1" stop-color="#2D9AA6"/>
</linearGradient>
<linearGradient id="paint4_linear_1350_47" x1="19.227" y1="12.681" x2="19.227" y2="17.319" gradientUnits="userSpaceOnUse">
<stop stop-color="#41A66C"/>
<stop offset="1" stop-color="#2D9AA6"/>
</linearGradient>
<linearGradient id="paint5_linear_1350_47" x1="18.7555" y1="4.26532" x2="18.7555" y2="5.49668" gradientUnits="userSpaceOnUse">
<stop stop-color="#41A66C"/>
<stop offset="1" stop-color="#2D9AA6"/>
</linearGradient>
<linearGradient id="paint6_linear_1350_47" x1="5.79947" y1="19.7257" x2="5.79947" y2="21.5472" gradientUnits="userSpaceOnUse">
<stop stop-color="#41A66C"/>
<stop offset="1" stop-color="#2D9AA6"/>
</linearGradient>
<linearGradient id="paint7_linear_1350_47" x1="10.7731" y1="22.3202" x2="10.7731" y2="26.2023" gradientUnits="userSpaceOnUse">
<stop stop-color="#41A66C"/>
<stop offset="1" stop-color="#2D9AA6"/>
</linearGradient>
<linearGradient id="paint8_linear_1350_47" x1="23.2594" y1="5.63477" x2="23.2594" y2="12.6221" gradientUnits="userSpaceOnUse">
<stop stop-color="#41A66C"/>
<stop offset="1" stop-color="#2D9AA6"/>
</linearGradient>
<clipPath id="clip0_1350_47">
<rect width="30" height="30" fill="white"/>
</clipPath>
</defs>
</svg>
