<svg width="30" height="30" viewBox="0 0 30 30" fill="none" xmlns="http://www.w3.org/2000/svg">
<path d="M19.375 11.25L19.5895 11.4645C21.2561 13.1311 22.0895 13.9645 22.0895 15C22.0895 16.0355 21.2561 16.8689 19.5895 18.5355L19.375 18.75" stroke="url(#paint0_linear_1347_31)" stroke-width="2" stroke-linecap="round"/>
<path d="M16.6178 8.96301L15.0001 15L13.3825 21.0371" stroke="url(#paint1_linear_1347_31)" stroke-width="2" stroke-linecap="round"/>
<path d="M10.6249 11.25L10.4105 11.4645C8.7438 13.1311 7.91046 13.9645 7.91046 15C7.91046 16.0355 8.7438 16.8689 10.4105 18.5355L10.6249 18.75" stroke="url(#paint2_linear_1347_31)" stroke-width="2" stroke-linecap="round"/>
<path d="M27.5 15C27.5 20.8925 27.5 23.8389 25.6694 25.6694C23.8389 27.5 20.8925 27.5 15 27.5C9.10744 27.5 6.16116 27.5 4.33059 25.6694C2.5 23.8389 2.5 20.8925 2.5 15C2.5 9.10744 2.5 6.16116 4.33059 4.33059C6.16116 2.5 9.10744 2.5 15 2.5C20.8925 2.5 23.8389 2.5 25.6694 4.33059C26.8866 5.54776 27.2945 7.25819 27.4311 10" stroke="url(#paint3_linear_1347_31)" stroke-width="2" stroke-linecap="round"/>
<defs>
<linearGradient id="paint0_linear_1347_31" x1="20.7323" y1="11.25" x2="20.7323" y2="18.75" gradientUnits="userSpaceOnUse">
<stop stop-color="#41A66C"/>
<stop offset="1" stop-color="#2D9AA6"/>
</linearGradient>
<linearGradient id="paint1_linear_1347_31" x1="15.0001" y1="8.96301" x2="15.0001" y2="21.0371" gradientUnits="userSpaceOnUse">
<stop stop-color="#41A66C"/>
<stop offset="1" stop-color="#2D9AA6"/>
</linearGradient>
<linearGradient id="paint2_linear_1347_31" x1="9.26769" y1="11.25" x2="9.26769" y2="18.75" gradientUnits="userSpaceOnUse">
<stop stop-color="#41A66C"/>
<stop offset="1" stop-color="#2D9AA6"/>
</linearGradient>
<linearGradient id="paint3_linear_1347_31" x1="15" y1="2.5" x2="15" y2="27.5" gradientUnits="userSpaceOnUse">
<stop stop-color="#41A66C"/>
<stop offset="1" stop-color="#2D9AA6"/>
</linearGradient>
</defs>
</svg>
