<svg width="70" height="70" viewBox="0 0 70 70" fill="none" xmlns="http://www.w3.org/2000/svg">
<g clip-path="url(#clip0_1368_269)">
<path fill-rule="evenodd" clip-rule="evenodd" d="M20.2482 43.459C20.4111 43.459 20.5663 43.4897 20.7097 43.5451C20.5544 43.6351 20.4491 43.8034 20.4491 43.9958C20.4491 44.2834 20.6821 44.5161 20.9697 44.5161C21.1666 44.5161 21.3375 44.4067 21.4261 44.2452C21.4884 44.3957 21.5233 44.5609 21.5233 44.7343C21.5233 45.4385 20.9523 46.0094 20.2482 46.0094C19.5441 46.0094 18.9729 45.4385 18.9729 44.7343C18.9729 44.0298 19.5441 43.459 20.2482 43.459ZM20.2482 46.9156C19.0453 46.9156 18.0665 45.9372 18.0665 44.7343C18.0665 43.5314 19.0453 42.5527 20.2482 42.5527C21.4509 42.5527 22.4295 43.5314 22.4295 44.7343C22.4295 45.9372 21.4509 46.9156 20.2482 46.9156ZM59.4591 32.6194C53.2642 49.0343 39.2739 56.346 22.7799 56.346C14.9866 56.346 8.7692 53.6655 4.79282 49.196L4.82212 49.1767C5.96782 49.2347 6.99301 49.2545 8.03371 49.2545C8.98529 49.2545 9.91612 49.2445 10.7782 49.196C10.8532 49.1918 10.9471 49.1814 11.0215 49.1767C11.0222 49.1765 11.2875 49.1592 11.1577 49.1571C13.3487 49.022 15.0469 48.7174 16.6306 48.2655C16.6302 48.2657 16.6309 48.2654 16.6306 48.2655C16.9183 48.1832 17.1984 48.0962 17.4658 48.0036C17.7649 47.8998 17.9233 47.5733 17.8197 47.2742C17.7161 46.9749 17.3898 46.8162 17.0905 46.9203C15.079 47.6173 12.4254 48.001 9.17313 48.073C7.51833 48.1096 5.70848 48.066 3.74654 47.9399C3.34068 47.398 2.96483 46.8349 2.62124 46.2516L2.07813 45.2585C0.437279 42.0326 -0.281117 38.2642 0.100144 34.1716H47.8233C51.7439 34.1716 55.5727 32.7085 57.3897 31.0945C54.1338 28.4471 54.4565 22.1588 56.5316 19.7593C58.3326 21.2063 61.2366 24.2545 60.7371 28.1348C63.0034 26.9955 66.9393 26.4325 70.0001 28.1988C68.0784 31.9497 63.8544 33.0702 59.4591 32.6194ZM6.57739 33.0134H13.0309V26.5595H6.57739V33.0134ZM14.0237 33.0134H20.4779V26.5595H14.0237V33.0134ZM14.0237 25.5668H20.4779V19.1131H14.0237V25.5668ZM21.4704 33.0134H27.9243V26.5595H21.4704V33.0134ZM21.4704 25.5668H27.9243V19.1131H21.4704V25.5668ZM28.9169 33.0134H35.3708V26.5595H28.9169V33.0134ZM28.9169 25.5668H35.3708V19.1131H28.9169V25.5668ZM28.9169 18.1205H35.3708V11.6666H28.9169V18.1205ZM36.3633 33.0134H42.8172V26.5595H36.3633V33.0134Z" fill="url(#paint0_linear_1368_269)"/>
</g>
<defs>
<linearGradient id="paint0_linear_1368_269" x1="35.0001" y1="11.6666" x2="35.0001" y2="56.346" gradientUnits="userSpaceOnUse">
<stop stop-color="#41A66C"/>
<stop offset="1" stop-color="#2D9AA6"/>
</linearGradient>
<clipPath id="clip0_1368_269">
<rect width="70" height="70" fill="white"/>
</clipPath>
</defs>
</svg>
