<svg width="71" height="70" viewBox="0 0 71 70" fill="none" xmlns="http://www.w3.org/2000/svg">
<path d="M38.1771 53.5938C27.8959 53.5938 21.3334 51.1875 17.1771 47.9062C18.0521 47.6875 18.9271 47.25 19.8021 46.5938C21.5521 44.8437 21.9896 42.4375 21.7709 40.25C21.7709 39.8125 21.5521 39.375 21.5521 38.9375C21.9896 38.9375 22.4271 39.1562 22.8646 39.1562C24.8334 39.1562 26.5834 38.2812 27.8959 36.9688C29.2084 39.375 31.8334 41.125 34.8959 41.125C38.6146 41.125 41.8959 38.5 42.5521 34.7812C42.5521 34.3438 42.7709 33.6875 42.7709 33.25C42.7709 32.375 42.5521 31.5 42.3334 30.625C41.2396 27.5625 38.3959 25.375 34.8959 25.375C32.9271 25.375 30.9584 26.0313 29.6459 27.3438C29.2084 27.7813 28.7709 28.2188 28.3334 28.875C27.8959 28.4375 27.4584 27.7813 27.0209 27.5625C25.9271 26.6875 24.3959 26.0312 22.8646 26.0312C19.5834 26.0312 16.7396 28.4375 16.3021 31.7188C15.6459 31.2812 15.2084 30.8438 14.5521 30.625C14.9896 28.875 16.0834 27.125 17.3959 26.0312V17.7188C17.3959 17.0625 18.0521 16.8438 18.2709 17.5V17.7188C19.1459 19.6875 20.2396 22.3125 22.6459 24.2813C24.6146 24.2813 26.5834 24.9375 27.8959 26.25C29.6459 24.7188 32.0521 23.625 34.4584 23.625C37.0834 23.625 39.4896 24.7188 41.2396 26.25C49.5521 23.8438 53.9271 18.375 56.1146 14C56.3334 13.3438 57.6459 13.5625 57.6459 14.2188C58.9584 27.125 58.3021 40.4687 52.1771 47.9062C49.9896 46.375 47.8021 45.2812 46.2709 44.4062C46.0521 44.4062 46.0521 44.1875 45.8334 44.1875C45.8334 43.9688 45.8334 43.75 45.8334 43.75C45.3959 42.4375 44.3021 41.125 42.7709 40.6875C42.3334 40.4688 41.6771 40.6875 41.6771 41.3438C41.4584 41.7812 41.6771 42.4375 42.3334 42.4375H42.5521C38.8334 44.8438 34.4584 45.9375 29.8646 45.7188H28.7709C28.3334 45.7188 27.8959 46.1562 27.6771 46.5938C27.6771 47.0312 28.1146 47.4688 28.5521 47.6875H29.6459C33.5834 47.9062 37.7396 47.25 41.2396 45.5C41.4584 45.7188 41.6771 46.1562 41.8959 46.375C42.3334 46.8125 42.9896 47.4688 43.8646 48.125C44.9584 49.2188 46.4896 50.3125 48.2396 51.625C45.6146 52.7188 42.3334 53.5938 38.1771 53.5938Z" fill="url(#paint0_linear_1368_334)"/>
<path d="M49.5521 50.3126C46.9271 48.3438 44.7396 46.5938 43.4271 45.5001C43.2084 45.2813 43.2084 45.2813 42.9896 45.0626C42.7709 44.6251 42.5521 44.4063 42.3334 44.1876C42.3334 43.9688 42.3334 43.9688 42.3334 43.9688C42.3334 43.9688 42.5521 43.7501 42.7709 43.9688C42.9896 43.9688 43.2084 44.1876 43.4271 44.1876C43.6459 44.1876 43.6459 44.4063 43.8646 44.4063C45.3959 45.0626 48.2396 46.5938 51.0834 48.5626C51.5209 48.7813 51.9584 49.2188 52.3959 49.4376C54.8021 50.9688 56.7709 52.7188 58.3021 53.8126C60.9271 50.9688 64.2084 58.6251 64.2084 58.6251C64.2084 58.6251 55.8959 59.5001 57.4271 55.5626C55.6771 54.6876 53.4896 53.1563 51.0834 51.6251C50.6459 51.1876 49.9896 50.7501 49.5521 50.3126Z" fill="url(#paint1_linear_1368_334)"/>
<path fill-rule="evenodd" clip-rule="evenodd" d="M18.9271 44.6249C18.7084 44.8437 18.4896 45.0625 18.2709 45.2812C15.8646 47.4687 11.2709 46.3749 7.98962 42.6562C4.70837 38.9374 3.83337 34.3437 6.23962 32.1562C8.20837 30.6249 11.2709 30.8437 14.1146 32.5937C14.7709 33.0312 15.6459 33.6874 16.3021 34.3437C16.5209 34.5624 16.7396 34.7812 16.9584 34.9999C17.8334 36.0937 18.7084 37.1874 19.1459 38.2812C19.8021 39.8124 20.0209 41.3437 20.0209 42.6562C19.8021 43.3124 19.5834 43.9687 18.9271 44.6249ZM11.7084 35.4375C11.7084 37.1875 10.6146 38.4999 9.08337 38.4999C7.55212 38.4999 6.45837 37.1875 6.45837 35.4375C6.45837 33.6875 7.55212 32.3749 9.08337 32.3749C10.6146 32.3749 11.7084 33.6875 11.7084 35.4375Z" fill="url(#paint2_linear_1368_334)"/>
<path d="M24.1771 36.75C26.3646 36.75 27.8959 35 27.8959 33.0313C27.8959 30.8438 26.1459 29.3125 24.1771 29.3125C23.9584 29.3125 23.5209 29.3125 23.3021 29.3125C24.1771 29.5312 24.8334 30.4062 24.8334 31.5C24.8334 32.8125 23.7396 33.6875 22.6459 33.6875C21.7709 33.6875 20.8959 33.0313 20.4584 32.1563C20.4584 32.375 20.4584 32.8125 20.4584 33.0313C20.4584 35 22.2084 36.75 24.1771 36.75Z" fill="url(#paint3_linear_1368_334)"/>
<path d="M36.2084 38.5C38.6146 38.5 40.5834 36.5312 40.5834 34.125C40.5834 31.7188 38.6146 29.75 36.2084 29.75C35.9896 29.75 35.7709 29.75 35.5521 29.75C36.6459 29.9688 37.5209 31.0625 37.5209 32.1562C37.5209 33.4687 36.4271 34.7812 34.8959 34.7812C33.5834 34.7812 32.2709 33.6875 32.2709 32.1562C32.2709 31.9375 32.2709 31.9375 32.2709 31.7187C31.8334 32.375 31.6146 33.25 31.6146 34.125C31.8334 36.5312 33.8021 38.5 36.2084 38.5Z" fill="url(#paint4_linear_1368_334)"/>
<defs>
<linearGradient id="paint0_linear_1368_334" x1="36.3808" y1="13.6038" x2="36.3808" y2="53.5938" gradientUnits="userSpaceOnUse">
<stop stop-color="#41A66C"/>
<stop offset="1" stop-color="#2D9AA6"/>
</linearGradient>
<linearGradient id="paint1_linear_1368_334" x1="53.2709" y1="43.8716" x2="53.2709" y2="58.7079" gradientUnits="userSpaceOnUse">
<stop stop-color="#41A66C"/>
<stop offset="1" stop-color="#2D9AA6"/>
</linearGradient>
<linearGradient id="paint2_linear_1368_334" x1="12.4452" y1="31.1322" x2="12.4452" y2="46.4006" gradientUnits="userSpaceOnUse">
<stop stop-color="#41A66C"/>
<stop offset="1" stop-color="#2D9AA6"/>
</linearGradient>
<linearGradient id="paint3_linear_1368_334" x1="24.1771" y1="29.3125" x2="24.1771" y2="36.75" gradientUnits="userSpaceOnUse">
<stop stop-color="#41A66C"/>
<stop offset="1" stop-color="#2D9AA6"/>
</linearGradient>
<linearGradient id="paint4_linear_1368_334" x1="36.099" y1="29.75" x2="36.099" y2="38.5" gradientUnits="userSpaceOnUse">
<stop stop-color="#41A66C"/>
<stop offset="1" stop-color="#2D9AA6"/>
</linearGradient>
</defs>
</svg>
