<svg width="70" height="70" viewBox="0 0 70 70" fill="none" xmlns="http://www.w3.org/2000/svg">
<path d="M65.625 4.375H4.375V65.625H65.625V4.375Z" fill="url(#paint0_linear_1368_281)"/>
<path d="M41.5625 55.3173L46.072 52.3331C46.4255 53.4435 48.6636 56.0806 51.4905 56.0806C54.3174 56.0806 55.6299 54.5366 55.6299 53.5129C55.6299 50.7234 52.7432 49.7399 51.3568 49.2676C51.1306 49.1906 50.9447 49.1271 50.8174 49.0718C50.752 49.0434 50.6533 49.0055 50.5267 48.9572C48.9847 48.3681 43.2957 46.1946 43.2957 39.8941C43.2957 32.9547 49.9927 32.1567 51.5073 32.1567C52.498 32.1567 57.262 32.2781 59.6345 36.7367L55.2595 39.7902C54.3005 37.8471 52.7069 37.2053 51.7261 37.2053C49.303 37.2053 48.7981 38.9815 48.7981 39.7902C48.7981 42.0591 51.4307 43.0761 53.6535 43.9347C54.2351 44.1593 54.7886 44.3731 55.2595 44.5957C57.6826 45.7407 61.25 47.6145 61.25 53.5129C61.25 56.4673 58.772 61.2505 52.5337 61.2505C44.1538 61.2505 41.9326 56.2195 41.5625 55.3173Z" fill="#202020"/>
<path d="M19.6875 55.9097L24.3878 52.9273C24.7559 54.037 26.1872 56.0832 28.2636 56.0832C30.3402 56.0832 31.4031 53.9504 31.4031 52.9273V32.813H37.1836V52.9273C37.2772 55.7017 35.7385 61.2505 28.9476 61.2505C22.7041 61.2505 20.1084 57.5398 19.6875 55.9097Z" fill="#202020"/>
<defs>
<linearGradient id="paint0_linear_1368_281" x1="35" y1="4.375" x2="35" y2="65.625" gradientUnits="userSpaceOnUse">
<stop stop-color="#41A66C"/>
<stop offset="1" stop-color="#2D9AA6"/>
</linearGradient>
</defs>
</svg>
