<svg width="50" height="50" viewBox="0 0 50 50" fill="none" xmlns="http://www.w3.org/2000/svg">
<path d="M45.8334 7.23039V42.7696C45.8334 43.5821 45.5106 44.3614 44.9361 44.936C44.3615 45.5106 43.5821 45.8333 42.7696 45.8333H7.23042C6.41785 45.8333 5.63858 45.5106 5.06404 44.936C4.48948 44.3614 4.16669 43.5821 4.16669 42.7696V7.23039C4.16669 6.41782 4.48948 5.63855 5.06404 5.06401C5.63858 4.48945 6.41785 4.16666 7.23042 4.16666H42.7696C43.5821 4.16666 44.3615 4.48945 44.9361 5.06401C45.5106 5.63855 45.8334 6.41782 45.8334 7.23039ZM16.4216 20.098H10.2941V39.7058H16.4216V20.098ZM16.9731 13.3578C16.9763 12.8943 16.8882 12.4348 16.7138 12.0053C16.5394 11.5759 16.2821 11.185 15.9567 10.855C15.6312 10.5249 15.2439 10.2623 14.817 10.0819C14.39 9.90159 13.9316 9.80712 13.4682 9.80391H13.3579C12.4153 9.80391 11.5114 10.1783 10.8449 10.8448C10.1784 11.5113 9.80394 12.4153 9.80394 13.3578C9.80394 14.3004 10.1784 15.2043 10.8449 15.8708C11.5114 16.5373 12.4153 16.9118 13.3579 16.9118C13.8214 16.9232 14.2826 16.8431 14.7152 16.6762C15.1478 16.5093 15.5432 16.2588 15.879 15.939C16.2147 15.6192 16.4841 15.2364 16.6719 14.8124C16.8596 14.3884 16.9619 13.9317 16.9731 13.4681V13.3578ZM39.7059 27.7942C39.7059 21.8996 35.9559 19.6078 32.2304 19.6078C31.0106 19.5468 29.7961 19.8066 28.7081 20.3613C27.62 20.916 26.6965 21.7464 26.0294 22.7696H25.8579V20.098H20.0981V39.7058H26.2254V29.2769C26.1369 28.2089 26.4734 27.1489 27.1617 26.3275C27.8502 25.506 28.8348 24.9894 29.9019 24.8898H30.1348C32.0834 24.8898 33.5294 26.1152 33.5294 29.2033V39.7058H39.6569L39.7059 27.7942Z" fill="#41A66C"/>
</svg>
