<svg width="70" height="70" viewBox="0 0 70 70" fill="none" xmlns="http://www.w3.org/2000/svg">
<g clip-path="url(#clip0_1368_348)">
<path d="M36.4671 0C36.0151 0 35.5484 0.0233333 35.0701 0.06125C22.7413 1.0325 26.0109 14.0817 25.8242 18.4304C25.5996 21.6183 24.9492 24.1296 22.7588 27.2417C20.1776 30.3071 16.5551 35.2625 14.8371 40.4279C14.0263 42.8546 13.6413 45.3396 14.0001 47.6875C13.8863 47.7867 13.7784 47.8858 13.6763 48.0812C12.918 48.8629 12.3667 49.8342 11.7455 50.5283C11.1651 51.1087 10.3309 51.3071 9.4209 51.695C8.50798 52.0917 7.50173 52.4796 6.9009 53.6812C6.6384 54.2296 6.50423 54.8275 6.5159 55.4342C6.5159 56.0146 6.59465 56.6037 6.67632 56.9975C6.84548 58.1612 7.01465 59.1237 6.79007 59.8267C6.06673 61.81 5.97632 63.1692 6.48382 64.1579C6.99132 65.1321 8.04423 65.5258 9.22257 65.9108C11.588 66.4942 14.7934 66.3046 17.3163 67.6579C20.0171 69.02 22.7588 69.615 24.9463 69.0287C26.4805 68.6933 27.7755 67.6783 28.4696 66.2725C30.1817 66.2637 32.0571 65.4879 35.0613 65.2983C37.1001 65.1292 39.6521 66.0771 42.5805 65.8787C42.6534 66.2725 42.7642 66.4592 42.913 66.8529L42.9217 66.8617C44.0621 69.1308 46.168 70.1633 48.4167 69.9854C50.6655 69.8104 53.0601 68.4221 54.9996 66.1762C56.8401 63.945 59.9084 63.0146 61.9355 61.7925C62.9505 61.2121 63.7701 60.4246 63.8284 59.3046C63.8955 58.1379 63.248 56.9362 61.7459 55.2883V55.0054L61.7371 54.9967C61.2413 54.4133 61.008 53.4362 60.7513 52.2958C60.5034 51.1262 60.2205 50.0033 59.3163 49.245H59.3076C59.1355 49.0875 58.9488 49.0496 58.7592 48.8512C58.5959 48.7404 58.4063 48.6704 58.2051 48.6646C59.4621 44.9371 58.9751 41.2271 57.7005 37.8904C56.1459 33.7779 53.4276 30.1962 51.3567 27.7317C49.0351 24.8004 46.7601 22.0237 46.8038 17.9054C46.8826 11.6287 47.4951 0.0175 36.4671 0ZM38.0101 9.93125H38.048C38.6692 9.93125 39.203 10.1121 39.7513 10.5087C40.3084 10.9025 40.7138 11.4771 41.0317 12.0633C41.338 12.8187 41.4926 13.4021 41.5159 14.175C41.5159 14.1167 41.5334 14.0583 41.5334 14.0029V14.3062C41.5276 14.2858 41.5217 14.2625 41.5217 14.245L41.5101 14.175C41.5042 14.8837 41.3555 15.5837 41.0726 16.2342C40.9355 16.5987 40.7255 16.9342 40.4513 17.2112C40.3667 17.1646 40.2851 17.1237 40.1946 17.0887C39.8884 16.9575 39.6142 16.9021 39.3634 16.7008C39.1563 16.6192 38.9405 16.5521 38.7247 16.5083C38.8676 16.3362 39.1476 16.1204 39.2555 15.9308C39.4101 15.5575 39.4946 15.1608 39.5121 14.7583V14.7029C39.518 14.3092 39.4596 13.9125 39.3342 13.5362C39.203 13.1425 39.0396 12.95 38.8005 12.5621C38.5555 12.3696 38.3134 12.1771 38.0217 12.1771H37.9751C37.7038 12.1771 37.4617 12.2646 37.2109 12.5621C36.9338 12.8362 36.7267 13.1658 36.613 13.5362C36.4584 13.9067 36.368 14.3062 36.3505 14.7029V14.7583C36.3563 15.0179 36.3738 15.2804 36.4088 15.5371C35.8459 15.3417 35.1313 15.1433 34.6384 14.9479C34.6092 14.7583 34.5917 14.5629 34.5859 14.3675V14.3092C34.5626 13.5392 34.7113 12.775 35.0234 12.0662C35.2626 11.4275 35.7001 10.8821 36.2776 10.5117C36.7763 10.1354 37.383 9.93125 38.0101 9.93125ZM29.3709 10.1033H29.4759C29.8901 10.1033 30.2634 10.2433 30.6397 10.4971C31.0655 10.8733 31.4096 11.3371 31.643 11.8533C31.9055 12.4338 32.0542 13.0229 32.0892 13.7987V13.8104C32.1096 14.2013 32.1067 14.3967 32.0834 14.5862V14.8196C31.9959 14.84 31.9201 14.8721 31.8413 14.8896C31.398 15.05 31.0422 15.2833 30.6951 15.4729C30.7301 15.2133 30.733 14.9508 30.7038 14.6942V14.6504C30.6688 14.2625 30.5901 14.07 30.4646 13.6792C30.3742 13.3817 30.208 13.1162 29.9805 12.9004C29.8376 12.7692 29.6451 12.7021 29.4467 12.7137H29.3855C29.1784 12.7312 29.0063 12.8333 28.843 13.0988C28.6563 13.3233 28.5367 13.5975 28.493 13.8862C28.4142 14.2013 28.3909 14.525 28.4259 14.8517V14.8925C28.4609 15.2862 28.5338 15.4787 28.6621 15.8667C28.7934 16.2575 28.9451 16.45 29.1434 16.6483C29.1755 16.6746 29.2046 16.7008 29.2426 16.7183C29.0384 16.8846 28.9013 16.9225 28.7292 17.115C28.6213 17.1967 28.4959 17.29 28.3471 17.3133C28.0438 16.9487 27.7755 16.555 27.5451 16.1408C27.2651 15.5283 27.1192 14.8633 27.093 14.1954C27.0434 13.5362 27.1251 12.8771 27.3263 12.2471C27.4867 11.6725 27.7696 11.1417 28.1517 10.6867C28.5251 10.2987 28.9101 10.1033 29.3709 10.1033ZM33.3696 15.0792C34.3351 15.0792 35.5047 15.2687 36.9134 16.2429C37.768 16.8262 38.4388 17.0275 39.9846 17.6079H39.9934C40.7371 18.0046 41.1746 18.3837 41.3876 18.7717V18.3896C41.6005 18.8183 41.6151 19.3171 41.4342 19.7604C41.0755 20.6675 39.9292 21.6387 38.3309 22.2192V22.225C37.5492 22.6187 36.8696 23.1962 36.0705 23.5812C35.2655 23.975 34.3555 24.4329 33.1188 24.36C32.6755 24.3833 32.2292 24.3162 31.8121 24.1646C31.4913 23.9896 31.1763 23.7971 30.873 23.5871C30.3042 23.1933 29.8142 22.6187 29.088 22.2308V22.2162H29.0734C27.9067 21.4987 27.2767 20.7229 27.0726 20.1425C26.8713 19.3608 27.058 18.7746 27.6355 18.3925C28.2888 17.9987 28.7438 17.6021 29.0442 17.4125C29.3476 17.1967 29.4613 17.115 29.5576 17.0304H29.5634V17.0217C30.0563 16.4325 30.8351 15.6537 32.0105 15.2687C32.4159 15.1637 32.868 15.0792 33.3696 15.0792ZM41.5334 21.3296C42.5805 25.4625 45.0246 31.465 46.5967 34.3758C47.4309 35.9333 49.0905 39.2146 49.8109 43.1958C50.2659 43.1812 50.7705 43.2483 51.3071 43.3825C53.1913 38.5087 49.7146 33.2704 48.1309 31.815C47.4863 31.2287 47.4542 30.8379 47.7721 30.8379C49.4901 32.3954 51.7534 35.4229 52.573 38.8792C52.9492 40.4396 53.0367 42.0992 52.6342 43.75C52.8296 43.8317 53.028 43.9279 53.2321 43.9454C56.2421 45.5029 57.3534 46.6812 56.8196 48.4283V48.3029C56.6417 48.2942 56.4696 48.3029 56.2917 48.3029H56.248C56.6884 46.9408 55.7171 45.8967 53.1417 44.7329C50.473 43.5662 48.3409 43.7529 47.9763 46.0892C47.9559 46.2146 47.9413 46.2817 47.9267 46.4829C47.7284 46.55 47.5213 46.6375 47.3171 46.6696C46.063 47.4512 45.3863 48.6208 45.0042 50.1317C44.6251 51.6862 44.5084 53.5033 44.4063 55.5829V55.5917C44.3451 56.5658 43.9076 58.0358 43.4759 59.5321C39.1009 62.6587 33.0342 64.0179 27.8746 60.5062C27.5509 59.9433 27.1571 59.4154 26.7021 58.9517C26.4863 58.5871 26.2121 58.2604 25.9001 57.9775C26.4309 57.9775 26.8859 57.8929 27.2563 57.7821C27.6792 57.5867 28.0059 57.2337 28.1721 56.8079C28.4871 56.0292 28.1721 54.775 27.1659 53.4158C26.1596 52.0537 24.4505 50.5137 21.9509 48.9796C20.1134 47.8158 19.0751 46.4421 18.5967 44.9079C18.1155 43.3504 18.1796 41.7433 18.553 40.11C19.2676 36.9892 21.0992 33.9558 22.2688 32.0513C22.5809 31.8617 22.3767 32.445 21.0788 34.8921C19.9238 37.0825 17.7509 42.175 20.723 46.1329C20.8338 43.2483 21.4755 40.4017 22.6101 37.7446C24.2551 34.0171 27.6938 27.5246 27.9651 22.3796C28.1051 22.4846 28.598 22.7733 28.808 22.9687C29.4438 23.3567 29.9163 23.94 30.5288 24.325C31.1442 24.9112 31.9201 25.3021 33.0838 25.3021C33.1976 25.3108 33.3026 25.3196 33.4076 25.3196C34.6063 25.3196 35.5338 24.9287 36.3126 24.5379C37.1584 24.1471 37.8321 23.5637 38.4709 23.3712H38.4855C39.8476 22.9775 40.9238 22.1987 41.5334 21.3296ZM47.9092 47.4571C48.0172 49.21 48.9096 51.0883 50.4817 51.4733C52.1967 51.8642 54.6642 50.5021 55.7055 49.2421L56.3209 49.2158C57.2396 49.1925 58.0038 49.245 58.7913 49.9946L58.8001 50.0033C59.4067 50.5837 59.6896 51.5521 59.9405 52.5583C60.1884 53.7279 60.3896 54.8333 61.1334 55.6675C62.5509 57.2046 63.0146 58.31 62.9884 58.9925L62.9972 58.975V59.0275L62.9884 58.9925C62.9446 59.7567 62.4488 60.1475 61.5359 60.7279C59.6984 61.8975 56.4434 62.8046 54.3697 65.3071C52.5672 67.4567 50.3709 68.6292 48.4313 68.7808C46.4946 68.9354 44.8234 68.1975 43.8405 66.1617L43.8259 66.1529C43.2134 64.9833 43.4759 63.1633 43.9892 61.2237C44.5026 59.2754 45.2376 57.3008 45.3396 55.6879C45.4476 53.6054 45.5613 51.7942 45.9084 50.3971C46.2584 49.0408 46.8067 48.0725 47.778 47.5271L47.9092 47.4629V47.4571ZM16.3655 47.6H16.3946C16.5492 47.6 16.7009 47.6146 16.8526 47.6408C17.9492 47.8012 18.9117 48.6121 19.8363 49.8342L22.4905 54.6875L22.4992 54.6962C23.208 56.2508 24.6984 57.7996 25.9671 59.4737C27.233 61.2179 28.213 62.7725 28.0934 64.0529V64.0704C27.9271 66.2404 26.6963 67.4187 24.8121 67.8446C22.9309 68.2383 20.3788 67.8504 17.8267 66.4912C15.0034 64.9279 11.6492 65.1233 9.49382 64.7354C8.41757 64.5429 7.71173 64.1492 7.38507 63.5658C7.06132 62.9854 7.05548 61.8129 7.74382 59.9783V59.9696L7.74965 59.9608C8.0909 58.9867 7.83715 57.7646 7.6709 56.6971C7.51048 55.5275 7.42882 54.6292 7.79632 53.9554C8.26298 52.9812 8.95132 52.7917 9.8059 52.4008C10.6663 52.0071 11.6755 51.8117 12.4776 51.0329H12.4834V51.0242C13.2301 50.2425 13.7813 49.2712 14.4317 48.58C14.9859 47.9937 15.5401 47.6 16.3655 47.6ZM37.2459 21.1342C35.9771 21.7204 34.4896 22.6946 32.9059 22.6946C31.3251 22.6946 30.0767 21.9158 29.1755 21.3354C28.7234 20.9446 28.3588 20.5537 28.0846 20.3583C27.6063 19.9675 27.6646 19.3842 27.8688 19.3842C28.1867 19.4308 28.2451 19.7779 28.4492 19.9704C28.7292 20.1629 29.0763 20.5508 29.5021 20.9417C30.3509 21.525 31.4855 22.3037 32.903 22.3037C34.3176 22.3037 35.9742 21.525 36.9805 20.9446C37.5492 20.5508 38.2784 19.9704 38.8705 19.5825C39.3255 19.1829 39.3051 18.8008 39.6842 18.8008C40.0605 18.8475 39.7834 19.1917 39.2555 19.7721C38.7276 20.1658 37.9109 20.7492 37.243 21.1371V21.1342H37.2459ZM34.0901 16.5142V16.45C34.0726 16.3946 34.128 16.3275 34.1746 16.3042C34.3905 16.1787 34.6996 16.2254 34.933 16.3158C35.1167 16.3158 35.3996 16.5112 35.3705 16.7096C35.353 16.8525 35.1226 16.9021 34.9767 16.9021C34.8163 16.9021 34.7084 16.7767 34.5655 16.7038C34.4138 16.6512 34.1396 16.6804 34.0901 16.5142ZM32.483 16.5142C32.4247 16.6833 32.1534 16.6571 31.9988 16.7067C31.8617 16.7796 31.748 16.905 31.5934 16.905C31.4446 16.905 31.2113 16.8496 31.1938 16.7067C31.1676 16.5142 31.4505 16.3187 31.6313 16.3187C31.8676 16.2283 32.168 16.1817 32.3867 16.3042C32.4422 16.3304 32.4917 16.3917 32.4742 16.45V16.5112H32.483V16.5142Z" fill="url(#paint0_linear_1368_348)"/>
</g>
<defs>
<linearGradient id="paint0_linear_1368_348" x1="34.9982" y1="0" x2="34.9982" y2="70.005" gradientUnits="userSpaceOnUse">
<stop stop-color="#41A66C"/>
<stop offset="1" stop-color="#2D9AA6"/>
</linearGradient>
<clipPath id="clip0_1368_348">
<rect width="70" height="70" fill="white"/>
</clipPath>
</defs>
</svg>
