<svg width="123" height="30" viewBox="0 0 123 30" fill="none" xmlns="http://www.w3.org/2000/svg">
<path d="M10.0354 0.528512C10.991 -0.273319 12.4161 -0.148752 13.218 0.806832C14.0199 1.76243 13.8953 3.18761 12.9397 3.98945L5.78246 9.99336L12.9543 16.0109C13.91 16.8128 14.0345 18.238 13.2327 19.1936C12.4307 20.1489 11.0056 20.2736 10.05 19.4719L0.980702 11.8625C0.816362 11.7495 0.663021 11.6145 0.528553 11.4543C-0.273333 10.4987 -0.148768 9.07351 0.806874 8.27168L10.0354 0.528512Z" fill="url(#paint0_linear_1406_76)"/>
<path d="M33.7612 0C39.2841 0 43.7612 4.47715 43.7612 10C43.7612 11.1046 42.8658 12 41.7612 12H29.1792C29.9509 13.7655 31.7112 14.9999 33.7612 15C34.9857 15 36.107 14.5589 36.9761 13.8281L42.4761 14.9062C40.7607 17.9465 37.501 20 33.7612 20C28.2385 19.9999 23.7612 15.5228 23.7612 10C23.7612 4.47721 28.2385 8.88443e-05 33.7612 0ZM42.5142 14.8389C42.5127 14.8416 42.5108 14.845 42.5093 14.8477L42.5112 14.8379L42.5142 14.8389ZM33.7612 5C31.7112 5.00007 29.9509 6.23449 29.1792 8H38.3442C37.5726 6.23431 35.8114 5 33.7612 5Z" fill="url(#paint1_linear_1406_76)"/>
<path d="M58.7612 0C64.2842 0 68.7622 4.47715 68.7622 10C68.7622 15.5228 64.2842 20 58.7612 20C56.9391 19.9999 55.2325 19.5097 53.7612 18.6582V30H48.7612V10C48.7612 4.47729 53.2384 0.000221449 58.7612 0ZM58.7612 5C56 5.00029 53.7612 7.23875 53.7612 10C53.7612 12.7612 56 14.9997 58.7612 15C61.5227 15 63.7622 12.7614 63.7622 10C63.7622 7.23858 61.5227 5 58.7612 5Z" fill="url(#paint2_linear_1406_76)"/>
<path d="M91.2622 0C95.4042 0.000175747 98.7622 3.35797 98.7622 7.5V20H93.7622V6.5C93.7622 5.11942 92.6427 4.00022 91.2622 4C89.8815 4 88.7622 5.11929 88.7622 6.5V20H83.7622V6.5C83.7622 5.11942 82.6427 4.00022 81.2622 4C79.8815 4 78.7622 5.11929 78.7622 6.5V20H73.7622V7.5C73.7622 3.35786 77.1201 0 81.2622 0C83.1829 8.15781e-05 84.9344 0.722704 86.2612 1.91016C87.5882 0.722252 89.341 0 91.2622 0Z" fill="url(#paint3_linear_1406_76)"/>
<path d="M109.304 0.806663C110.106 -0.148709 111.53 -0.273247 112.486 0.528343L121.715 8.27151C122.67 9.07337 122.795 10.4986 121.993 11.4541C121.855 11.6183 121.697 11.7555 121.528 11.8701L112.471 19.4717C111.516 20.2733 110.091 20.1479 109.29 19.1924C108.488 18.2368 108.612 16.8126 109.568 16.0108L116.738 9.99319L109.583 3.98928C108.627 3.18745 108.503 1.76225 109.304 0.806663Z" fill="url(#paint4_linear_1406_76)"/>
<defs>
<linearGradient id="paint0_linear_1406_76" x1="0" y1="10.0001" x2="13.7612" y2="10.0001" gradientUnits="userSpaceOnUse">
<stop stop-color="#41A66C"/>
<stop offset="1" stop-color="#2D9AA6"/>
</linearGradient>
<linearGradient id="paint1_linear_1406_76" x1="23.7612" y1="10" x2="43.7612" y2="10" gradientUnits="userSpaceOnUse">
<stop stop-color="#41A66C"/>
<stop offset="1" stop-color="#2D9AA6"/>
</linearGradient>
<linearGradient id="paint2_linear_1406_76" x1="48.7612" y1="15" x2="68.7622" y2="15" gradientUnits="userSpaceOnUse">
<stop stop-color="#41A66C"/>
<stop offset="1" stop-color="#2D9AA6"/>
</linearGradient>
<linearGradient id="paint3_linear_1406_76" x1="73.7622" y1="10" x2="98.7622" y2="10" gradientUnits="userSpaceOnUse">
<stop stop-color="#41A66C"/>
<stop offset="1" stop-color="#2D9AA6"/>
</linearGradient>
<linearGradient id="paint4_linear_1406_76" x1="108.761" y1="9.99985" x2="122.521" y2="9.99985" gradientUnits="userSpaceOnUse">
<stop stop-color="#41A66C"/>
<stop offset="1" stop-color="#2D9AA6"/>
</linearGradient>
</defs>
</svg>
