<svg width="30" height="30" viewBox="0 0 30 30" fill="none" xmlns="http://www.w3.org/2000/svg">
<path fill-rule="evenodd" clip-rule="evenodd" d="M10 2.5C7.92894 2.5 6.25 4.17894 6.25 6.25V23.75C6.25 25.8211 7.92894 27.5 10 27.5H20C22.0711 27.5 23.75 25.8211 23.75 23.75V6.25C23.75 4.17894 22.0711 2.5 20 2.5H10ZM8.75 6.25C8.75 5.55965 9.30965 5 10 5H20C20.6904 5 21.25 5.55965 21.25 6.25V23.75C21.25 24.4404 20.6904 25 20 25H10C9.30965 25 8.75 24.4404 8.75 23.75V6.25ZM12.5 21.25C11.8096 21.25 11.25 21.8096 11.25 22.5C11.25 23.1904 11.8096 23.75 12.5 23.75H17.5C18.1904 23.75 18.75 23.1904 18.75 22.5C18.75 21.8096 18.1904 21.25 17.5 21.25H12.5Z" fill="url(#paint0_linear_1397_114)"/>
<defs>
<linearGradient id="paint0_linear_1397_114" x1="15" y1="2.5" x2="15" y2="27.5" gradientUnits="userSpaceOnUse">
<stop stop-color="#41A66C"/>
<stop offset="1" stop-color="#2D9AA6"/>
</linearGradient>
</defs>
</svg>
