<svg width="70" height="70" viewBox="0 0 70 70" fill="none" xmlns="http://www.w3.org/2000/svg">
<path d="M65.6819 33.1166C65.5025 33.1035 65.2947 33.0947 65.0847 33.0947C64.0259 33.0947 63.0131 33.2916 62.0812 33.6503L62.1381 33.6307C61.8647 33.74 61.4272 33.74 61.39 34.0878C61.5409 34.2322 61.5628 34.4707 61.6897 34.6719C61.9456 35.105 62.2606 35.4725 62.6281 35.7788L62.6347 35.7853C63.0175 36.085 63.4003 36.376 63.8028 36.6319C64.5137 37.0694 65.3209 37.3297 66.0166 37.7694C66.4125 38.0253 66.8172 38.3513 67.2197 38.6247C67.4187 38.7603 67.5478 39.0075 67.8037 39.095V39.0403C67.6791 38.8763 67.6397 38.6378 67.5172 38.4563C67.3334 38.2725 67.1519 38.1085 66.9703 37.9291C66.4278 37.2182 65.8 36.61 65.0956 36.1025L65.0694 36.085C64.4853 35.6869 63.2056 35.1291 62.965 34.4575L62.93 34.4182C63.4069 34.3503 63.8312 34.2497 64.2403 34.1141L64.1878 34.1294C64.8091 33.9653 65.3778 34.0003 66.0187 33.8407C66.3075 33.7663 66.6006 33.6766 66.8937 33.5847V33.4207C66.5656 33.0925 66.3206 32.6463 65.9816 32.34C65.0869 31.5525 64.1003 30.8132 63.0612 30.1482L62.9628 30.0891C62.3897 29.7238 61.6612 29.4875 61.0575 29.1769C60.8387 29.0675 60.4734 29.0128 60.3465 28.8291C60.0622 28.4244 59.8106 27.9607 59.6115 27.4707L59.5941 27.4225C59.0574 26.3813 58.5586 25.3218 58.0978 24.2441C57.7828 23.4063 57.47 22.7194 57.1178 22.0544L57.1681 22.1572C55.4487 19.2719 53.0534 16.9532 50.1944 15.3716L50.1003 15.3235C49.4244 14.9888 48.6391 14.7285 47.8144 14.5819L47.7597 14.5732C47.3025 14.5513 46.8475 14.5185 46.3925 14.4988C46.0731 14.2932 45.7975 14.0832 45.5394 13.8513L45.5459 13.8578C44.5069 13.2016 41.8184 11.7797 41.0528 13.661C40.5606 14.8466 41.7834 16.0169 42.2056 16.6185C42.5425 17.0188 42.8487 17.4672 43.1134 17.9419L43.1353 17.9857C43.2644 18.3028 43.2994 18.6288 43.4284 18.9591C43.7456 19.9478 44.0672 20.7594 44.4325 21.5447L44.3756 21.4091C44.5922 21.8444 44.8175 22.2141 45.0691 22.5641L45.0516 22.5378C45.1981 22.7369 45.4497 22.831 45.5087 23.1591C45.3206 23.555 45.1741 24.0144 45.0931 24.4935L45.0887 24.5241C44.8525 25.2503 44.7147 26.0882 44.7147 26.9566C44.7147 28.315 45.0494 29.5947 45.64 30.7191L45.6181 30.6753C45.9112 31.1282 46.6069 32.1344 47.5387 31.7494C48.3591 31.4213 48.1775 30.3822 48.4137 29.4678C48.4684 29.2491 48.4334 29.1047 48.545 28.956V28.9975C48.8009 29.5116 49.0591 30.0016 49.2931 30.5157C49.9537 31.4672 50.7391 32.2766 51.6359 32.9438L51.6644 32.9635C52.1019 33.2916 52.4497 33.8603 52.9966 34.0616V34.0069H52.955C52.8303 33.8713 52.6925 33.751 52.5415 33.6482L52.5328 33.6438C52.1937 33.3113 51.8787 32.9525 51.5944 32.5741L51.5769 32.55C50.8637 31.5875 50.1856 30.4982 49.5972 29.3541L49.5337 29.2207C49.2341 28.6475 48.9825 28.0285 48.7419 27.4619C48.6325 27.2432 48.6325 26.915 48.4487 26.8057C48.125 27.1688 47.8341 27.5735 47.5912 28.0088L47.5737 28.0438C47.2937 28.8597 47.11 29.8025 47.0619 30.7803V30.8044C46.9875 30.8241 47.0247 30.8044 46.9875 30.8438C46.4034 30.7016 46.2022 30.0957 45.9834 29.586C45.6859 28.7853 45.5131 27.8578 45.5131 26.8932C45.5131 26.1144 45.6247 25.3619 45.8347 24.651L45.8216 24.7078C45.9506 24.325 46.4975 23.1175 46.2787 22.75C46.165 22.4022 45.8041 22.2032 45.6028 21.921C45.3644 21.5841 45.1456 21.2013 44.9641 20.7966L44.9466 20.7528C44.5091 19.7313 44.2903 18.5982 43.8156 17.5766C43.5291 17.0428 43.2272 16.5835 42.8881 16.1547L42.9034 16.1744C42.5425 15.7566 42.21 15.2907 41.9212 14.7963L41.8972 14.7525C41.8075 14.5535 41.6784 14.2232 41.8228 14.0044C41.8491 13.8775 41.9497 13.7791 42.0787 13.7594C42.3194 13.5625 42.9975 13.8185 43.2337 13.9278C43.9272 14.1903 44.5244 14.4988 45.0778 14.8619L45.0428 14.84C45.2987 15.0194 45.5766 15.3672 45.9047 15.4569H46.2875C46.8716 15.586 47.5322 15.4963 48.0791 15.656C49.0831 15.995 49.9515 16.4194 50.7544 16.94L50.7084 16.9116C53.1234 18.4713 55.0572 20.58 56.3653 23.0716L56.4091 23.1613C56.6278 23.5813 56.7241 23.9685 56.9231 24.406C57.3059 25.3072 57.7784 26.2194 58.1678 27.09C58.5375 28.0263 58.975 28.8357 59.4956 29.5816L59.4694 29.5422C59.7428 29.925 60.8409 30.1241 61.3331 30.3232C61.8516 30.5047 62.2672 30.6775 62.6697 30.8722L62.5887 30.8372C63.2166 31.22 63.8291 31.6575 64.4197 32.0775C64.7194 32.2853 65.6316 32.7425 65.6862 33.11L65.6819 33.1166ZM40.0356 49.1138C40.0356 49.1466 40.0378 49.1838 40.0378 49.221C40.0378 50.4416 39.4931 51.5332 38.6312 52.2682L38.6247 52.2725C37.6797 53.0425 36.4612 53.5107 35.1334 53.5107C35.0306 53.5107 34.9278 53.5085 34.8272 53.5019H34.8403C33.2237 53.48 31.7362 52.955 30.5178 52.0778L30.5397 52.0932L31.1872 50.7916C32.1256 51.3166 33.2412 51.6425 34.4269 51.6885H34.44C34.4991 51.6928 34.5669 51.695 34.6369 51.695C35.3631 51.695 36.0391 51.4675 36.5925 51.0803L36.5816 51.0869C37.0825 50.7063 37.4019 50.1113 37.4019 49.4419C37.4019 49.4288 37.4019 49.4178 37.4019 49.4047V49.4069C37.4019 48.5057 36.7741 47.74 35.63 47.0969C34.569 46.515 32.4515 45.301 32.4515 45.301C31.4059 44.6535 30.7212 43.5138 30.7212 42.2144C30.7212 42.1685 30.7212 42.1225 30.7234 42.0766V42.0832C30.7212 42.0416 30.7212 41.9935 30.7212 41.9453C30.7212 40.8188 31.2178 39.8082 32.0031 39.1213L32.0075 39.1169C32.8431 38.4082 33.9347 37.9772 35.1269 37.9772C35.2034 37.9772 35.2778 37.9794 35.3522 37.9816H35.3412C35.3609 37.9816 35.385 37.9816 35.409 37.9816C36.8069 37.9816 38.1084 38.3994 39.1934 39.1191L39.1672 39.1038L38.5853 40.4053C37.73 40.0203 36.7325 39.7885 35.6825 39.7775H35.6781C35.6256 39.7732 35.5666 39.771 35.5053 39.771C34.8928 39.771 34.3284 39.9853 33.8866 40.3441L33.8909 40.3397C33.4775 40.6832 33.215 41.1972 33.2128 41.7725C33.2128 42.6694 33.8515 43.4394 35.0328 44.0957C36.1069 44.6841 38.2769 45.9266 38.2769 45.9266C39.3444 46.5544 40.0509 47.6963 40.0509 49.0044C40.0509 49.0438 40.0509 49.0853 40.0487 49.1247V49.1182L40.0356 49.1138ZM44.5681 50.2753C43.9709 49.0832 43.6231 47.6788 43.6231 46.1935C43.6231 45.9594 43.6319 45.7275 43.6494 45.5L43.6472 45.5307C43.6472 41.7229 44.8044 39.8184 47.1187 39.8169C47.1756 39.8125 47.2434 39.8103 47.3134 39.8103C48.3525 39.8103 49.2647 40.3528 49.7831 41.171L49.7897 41.1819C50.3825 42.3675 50.7303 43.7675 50.7303 45.2463C50.7303 45.4738 50.7216 45.6991 50.7062 45.9222L50.7084 45.8916C50.7084 49.7299 49.5512 51.6506 47.2369 51.6535C47.1778 51.6578 47.11 51.66 47.0422 51.66C46.0031 51.66 45.0887 51.1175 44.5703 50.2994L44.5637 50.2885L44.5681 50.2753ZM53.5675 53.6703L50.7894 52.3032C51.0431 52.091 51.2706 51.8678 51.4806 51.6272L51.4872 51.6207C52.6094 50.1069 53.2831 48.2016 53.2831 46.141C53.2831 45.9025 53.2744 45.6663 53.2569 45.4322L53.2591 45.4628C53.2591 40.4608 51.2954 37.9583 47.3681 37.9553C47.2806 37.951 47.1778 37.9488 47.075 37.9488C45.3972 37.9488 43.89 38.686 42.8641 39.8563L42.8597 39.8628C41.7419 41.3766 41.0703 43.2797 41.0703 45.3403C41.0703 45.5722 41.0791 45.8019 41.0966 46.0294L41.0944 45.9988C41.0747 46.2197 41.0637 46.4778 41.0637 46.7382C41.0637 48.65 41.6631 50.4219 42.6825 51.8766L42.6628 51.8482C43.645 52.8938 45.0384 53.5457 46.5806 53.5457C46.725 53.5457 46.8672 53.5391 47.0072 53.5282L46.9875 53.5303C47.0072 53.5303 47.0334 53.5303 47.0575 53.5303C47.7378 53.5303 48.3962 53.4319 49.0197 53.2503L48.9715 53.2635L52.5941 55.3744L53.5784 53.6747L53.5675 53.6703ZM62.6412 53.3007H55.4509V38.185H57.8703V51.4435H62.6412V53.3007ZM28.9515 42.1488C28.3237 46.7075 26.8865 50.8222 24.7844 54.5082L24.8719 54.3397C24.0297 55.9607 22.4372 57.0894 20.5669 57.271L20.545 57.2732C19.9784 57.2425 19.4512 57.1069 18.9722 56.886L18.9984 56.8969V55.5472C19.2981 55.5932 19.6437 55.6194 19.9959 55.6194C20.0156 55.6194 20.0353 55.6194 20.0572 55.6194C20.0922 55.6216 20.1294 55.6216 20.1687 55.6216C20.8009 55.6216 21.3806 55.3919 21.8269 55.0091L21.8225 55.0113C22.3037 54.6153 22.6122 54.0247 22.6297 53.3597C22.5137 52.4016 22.2928 51.5266 21.9756 50.7019L22.0019 50.7763L19.2303 42.1488H21.7175L23.7059 48.5997C24.0603 49.5097 24.2659 50.5641 24.2659 51.6644C24.2659 51.6666 24.2659 51.6688 24.2659 51.6688C25.3203 48.9082 26.1209 45.6882 26.5278 42.3478L26.5475 42.1466L28.9515 42.1488ZM17.9703 53.3007H15.4372C15.3657 49.2742 15.12 45.2558 14.7 41.2453H14.6781L10.8237 53.3007H8.89655L5.06843 41.2453H5.04218C4.74322 45.2572 4.5653 49.2757 4.50843 53.3007H2.19843C2.34863 47.9267 2.72197 42.8874 3.31843 38.1828H6.46186L10.1106 49.2932H10.1325L13.814 38.1828H16.8066C17.4686 43.691 17.8587 48.7302 17.9769 53.3007H17.9703ZM47.0422 17.2353C47.0378 17.2353 47.0312 17.2353 47.0247 17.2353C46.7644 17.2353 46.5128 17.2682 46.2722 17.3294L46.2941 17.325V17.36H46.3312C46.5194 17.64 46.7119 17.8828 46.9197 18.1103L46.9153 18.106C47.0619 18.3991 47.1887 18.69 47.3353 18.981L47.3725 18.9394C47.6109 18.7513 47.7619 18.4625 47.7619 18.1388C47.7619 18.0994 47.7597 18.0622 47.7553 18.0228V18.0272C47.6459 17.8982 47.6306 17.7713 47.5366 17.6444C47.4272 17.4607 47.1931 17.371 47.0444 17.2266L47.0422 17.2353Z" fill="url(#paint0_linear_1368_309)"/>
<defs>
<linearGradient id="paint0_linear_1368_309" x1="35.0011" y1="12.7233" x2="35.0011" y2="57.2732" gradientUnits="userSpaceOnUse">
<stop stop-color="#41A66C"/>
<stop offset="1" stop-color="#2D9AA6"/>
</linearGradient>
</defs>
</svg>
