<svg width="70" height="70" viewBox="0 0 70 70" fill="none" xmlns="http://www.w3.org/2000/svg">
<path d="M34.705 70C33.7676 70 32.8366 69.7541 32.0148 69.2809L23.4516 64.2112C22.1726 63.4959 22.7967 63.2429 23.2185 63.0972C24.9239 62.5001 25.2699 62.3652 27.0902 61.3315C27.2815 61.2224 27.5319 61.2609 27.7277 61.3764L34.3063 65.2802C34.5439 65.4086 34.881 65.4086 35.1012 65.2802L60.7516 50.4742C60.9892 50.3394 61.1433 50.0633 61.1433 49.7808V20.1817C61.1433 19.8863 60.9892 19.6231 60.7465 19.4754L35.1063 4.68225C34.8688 4.54099 34.5542 4.54099 34.3166 4.68225L8.68158 19.4754C8.4331 19.6166 8.27515 19.8927 8.27515 20.1752V49.7744C8.27515 50.0569 8.42925 50.3265 8.67323 50.4614L15.6974 54.5192C19.5113 56.4261 21.8419 54.1789 21.8419 51.9189V22.705C21.8419 22.2876 22.1694 21.9666 22.5867 21.9666H25.8356C26.2401 21.9666 26.574 22.2876 26.574 22.705V51.9317C26.574 57.0168 23.8002 59.9382 18.9783 59.9382C17.4952 59.9382 16.3266 59.9382 13.0649 58.3331L6.33612 54.455C4.67318 53.4919 3.64587 51.6941 3.64587 49.7744V20.1752C3.64587 18.249 4.67318 16.4513 6.33612 15.501L32.0122 0.688613C33.6367 -0.229538 35.794 -0.229538 37.4056 0.688613L63.0496 15.5074C64.7061 16.4641 65.7398 18.2555 65.7398 20.1817V49.7808C65.7398 51.7006 64.7061 53.4919 63.0496 54.455L37.4056 69.2674C36.5837 69.7425 35.6527 69.9865 34.7025 69.9865L34.705 70ZM42.6281 49.6042C31.4048 49.6042 29.0517 44.4523 29.0517 40.1312C29.0517 39.7203 29.383 39.3928 29.7945 39.3928H33.1076C33.4736 39.3928 33.7818 39.6593 33.8395 40.0208C34.3404 43.3967 35.8299 45.0995 42.6166 45.0995C48.0227 45.0995 50.3213 43.8783 50.3213 41.0115C50.3213 39.3614 49.6664 38.135 41.2682 37.3132C34.244 36.6198 29.9037 35.0724 29.9037 29.4543C29.9037 24.2793 34.2697 21.1974 41.5828 21.1974C49.7948 21.1974 53.8655 24.0482 54.3792 30.1735C54.3984 30.3853 54.3214 30.5908 54.1801 30.7449C54.0389 30.8926 53.8398 30.9824 53.6344 30.9824H50.3021C49.9553 30.9824 49.6536 30.7385 49.5829 30.4046C48.7804 26.854 46.8413 25.7175 41.57 25.7175C35.6694 25.7175 34.9824 27.7721 34.9824 29.3131C34.9824 31.1815 35.7914 31.7272 43.753 32.7802C51.6375 33.8268 55.3808 35.3035 55.3808 40.8445C55.3808 46.4305 50.7194 49.6344 42.5909 49.6344L42.6281 49.6042Z" fill="url(#paint0_linear_1368_249)"/>
<defs>
<linearGradient id="paint0_linear_1368_249" x1="34.6928" y1="0" x2="34.6928" y2="70" gradientUnits="userSpaceOnUse">
<stop stop-color="#41A66C"/>
<stop offset="1" stop-color="#2D9AA6"/>
</linearGradient>
</defs>
</svg>
