<svg width="30" height="30" viewBox="0 0 30 30" fill="none" xmlns="http://www.w3.org/2000/svg">
<path d="M29.9307 12.4814L26.458 15.3428L25.332 14.2168C24.5635 15.0741 22.439 17.9313 22.6221 23.1562L7.43945 27.4619L11.4082 22.9736L13.1924 22.6768L16.3057 19.1553C16.8442 19.3857 17.4886 19.2849 17.9248 18.8486C18.4985 18.2748 18.4941 17.3398 17.915 16.7607C17.3359 16.1818 16.401 16.1782 15.8271 16.752C15.2537 17.3258 15.2581 18.2598 15.8369 18.8389C15.8751 18.8771 15.9149 18.9131 15.9561 18.9463L12.9482 22.3486L11.1631 22.6455L7.20117 27.127L11.4844 12.0186C16.7092 12.2016 19.5655 10.0762 20.4229 9.30762L19.3496 8.23535L22.2109 4.7627L29.9307 12.4814ZM0.586914 2.5498C1.55797 3.30915 2.4092 4.20971 3.11328 5.22168C4.64577 7.43375 5.07982 9.7686 4.3623 11.9736C2.59101 17.4238 2.3547 21.2722 3.64258 23.7393C4.39265 25.1306 5.68848 26.1469 7.21875 26.5439L6.94727 27.4336C5.17683 26.9668 3.68034 25.7837 2.81836 24.1689C0.941081 20.5728 2.29803 15.3221 3.48145 11.6855C4.99873 7.0277 0.0867969 3.335 0.0371094 3.29785L0.586914 2.5498Z" fill="url(#paint0_linear_1350_58)"/>
<defs>
<linearGradient id="paint0_linear_1350_58" x1="14.9839" y1="2.5498" x2="14.9839" y2="27.4619" gradientUnits="userSpaceOnUse">
<stop stop-color="#41A66C"/>
<stop offset="1" stop-color="#2D9AA6"/>
</linearGradient>
</defs>
</svg>
