<svg width="71" height="70" viewBox="0 0 71 70" fill="none" xmlns="http://www.w3.org/2000/svg">
<path d="M69.343 41.9166C68.9361 40.6841 67.8699 39.8255 66.491 39.6194C65.8409 39.5223 65.0963 39.5637 64.2153 39.7454C62.6796 40.0622 61.5403 40.1828 60.7088 40.2063C63.8472 34.9072 66.3993 28.8643 67.8685 23.1759C70.2441 13.9783 68.9746 9.78813 67.4912 7.89269C63.5652 2.87625 57.8372 0.181161 50.9266 0.0985468C47.2404 0.0535555 44.004 0.781411 42.316 1.30469C40.7441 1.02753 39.0539 0.872647 37.2804 0.843959C33.9566 0.790973 31.0194 1.51554 28.5098 3.00479C27.1201 2.53513 24.8904 1.8728 22.3153 1.45001C16.2585 0.455655 11.3772 1.23054 7.80677 3.75287C3.48322 6.80695 1.47884 12.1131 1.84958 19.5241C1.96716 21.8771 3.2835 29.0361 5.35592 35.8257C6.54701 39.728 7.81712 42.9688 9.13095 45.4585C10.9941 48.989 12.9877 51.0681 15.2258 51.8147C16.4804 52.2327 18.7596 52.5253 21.1569 50.529C21.4608 50.8968 21.866 51.2625 22.4042 51.6021C23.0873 52.033 23.9229 52.3851 24.7572 52.5938C27.7644 53.3456 30.5811 53.1575 32.9842 52.1039C32.9989 52.5312 33.0103 52.9396 33.0201 53.2922C33.036 53.8642 33.0517 54.4249 33.0727 54.9493C33.2151 58.4956 33.4563 61.2529 34.1712 63.1821C34.2104 63.2884 34.2632 63.45 34.319 63.6213C34.6755 64.7134 35.272 66.5412 36.789 67.9729C38.3602 69.4558 40.2605 69.9107 42.0009 69.9105C42.8738 69.9105 43.7066 69.7961 44.437 69.6395C47.041 69.0816 49.9982 68.2313 52.1374 65.1854C54.1598 62.3058 55.143 57.9687 55.321 51.1348C55.344 50.9416 55.3653 50.7571 55.3859 50.5812C55.3997 50.4626 55.4138 50.3412 55.428 50.2202L55.9046 50.2621L56.0274 50.2704C58.6795 50.3912 61.9223 49.8288 63.9138 48.9037C65.4876 48.1733 70.5304 45.5112 69.343 41.9166Z" fill="black"/>
<path d="M64.8083 42.6158C56.9228 44.2424 56.3807 41.5725 56.3807 41.5725C64.7066 29.2183 68.1871 13.5364 65.1835 9.69834C56.9894 -0.771139 42.8051 4.18025 42.5684 4.3088L42.4922 4.32244C40.9343 3.99903 39.1908 3.80637 37.2312 3.77439C33.6631 3.71592 30.9566 4.7098 28.9028 6.26725C28.9028 6.26725 3.59937 -4.15677 4.7762 19.3774C5.02655 24.3841 11.9522 57.2605 20.2129 47.3303C23.2322 43.6992 26.1494 40.629 26.1494 40.629C27.5984 41.5915 29.333 42.0825 31.1514 41.9061L31.2927 41.7862C31.2488 42.237 31.2688 42.678 31.3493 43.2C29.2212 45.5777 29.8465 45.9951 25.5924 46.8708C21.2878 47.758 23.8166 49.3374 25.4676 49.7501C27.4692 50.2507 32.0998 50.9597 35.2287 46.5797L35.1039 47.0795C35.9377 47.7473 36.5233 51.4236 36.4251 54.7561C36.327 58.0887 36.2615 60.3767 36.9185 62.1638C37.5755 63.9509 38.2303 67.9719 43.8227 66.7736C48.4956 65.7722 50.9172 63.1771 51.254 58.8484C51.4931 55.7709 52.0341 56.2259 52.0683 53.4745L52.5022 52.172C53.0026 48.0003 52.5817 46.6545 55.4607 47.2805L56.1603 47.3419C58.2793 47.4383 61.0526 47.0011 62.6803 46.2446C66.1852 44.618 68.2639 41.9022 64.808 42.6158H64.8083Z" fill="url(#paint0_linear_1368_224)"/>
<path d="M30.3839 21.6164C29.6734 21.5175 29.0298 21.6091 28.7042 21.8555C28.5209 21.9942 28.4643 22.1549 28.4491 22.2656C28.4082 22.5586 28.6136 22.8825 28.7396 23.0496C29.0964 23.5225 29.6178 23.8477 30.1339 23.9193C30.2086 23.9297 30.2829 23.9347 30.3569 23.9347C31.2176 23.9347 31.9998 23.2647 32.0688 22.7701C32.155 22.1507 31.2558 21.7378 30.3839 21.6164Z" fill="white"/>
<path d="M53.9251 21.636C53.8574 21.1505 52.9932 21.0121 52.1733 21.1261C51.3547 21.2402 50.5607 21.6097 50.627 22.0963C50.6803 22.4747 51.3633 23.1207 52.1722 23.1206C52.2404 23.1206 52.3094 23.116 52.3788 23.1063C52.9187 23.0315 53.3149 22.6887 53.503 22.491C53.7897 22.19 53.9554 21.8542 53.9251 21.636Z" fill="white"/>
<path d="M67.4324 42.4309C67.1317 41.5217 66.164 41.229 64.5561 41.5612C59.782 42.5465 58.0723 41.8639 57.5108 41.4505C61.2217 35.7973 64.2744 28.9641 65.9212 22.5884C66.7014 19.5683 67.1324 16.7637 67.1675 14.4777C67.2064 11.9683 66.7792 10.1246 65.8977 8.99821C62.344 4.45738 57.1286 2.02174 50.8153 1.9548C46.4751 1.90605 42.8081 3.01688 42.0972 3.32915C40.6001 2.95684 38.968 2.72828 37.1914 2.69912C33.9331 2.64645 31.1168 3.4265 28.7849 5.0164C27.7721 4.63954 25.1544 3.74097 21.9535 3.22537C16.4191 2.33417 12.0214 3.00935 8.88296 5.23274C5.13818 7.88581 3.40939 12.6282 3.74439 19.328C3.85711 21.5823 5.14132 28.5164 7.16827 35.1572C9.83624 43.8976 12.7362 48.8457 15.7878 49.8634C16.1449 49.9826 16.5569 50.066 17.0109 50.066C18.124 50.066 19.4887 49.5642 20.9086 47.8572C23.2671 45.0197 25.4692 42.6421 26.2809 41.7782C27.4805 42.4222 28.7981 42.7816 30.1461 42.8177C30.1485 42.8529 30.1521 42.8882 30.1552 42.9233C29.8848 43.2441 29.663 43.5251 29.4739 43.7652C28.5401 44.9506 28.3457 45.1973 25.3396 45.8164C24.4846 45.9928 22.2132 46.4609 22.1801 48.0528C22.1439 49.7921 24.8646 50.5226 25.1747 50.6001C26.2549 50.8705 27.2955 51.0039 28.288 51.0039C30.7018 51.0037 32.8258 50.2105 34.5234 48.6756C34.4711 54.8764 34.7297 60.9866 35.4742 62.8483C36.0839 64.3722 37.5736 68.097 42.2792 68.0966C42.9694 68.0966 43.7295 68.0164 44.5656 67.8372C49.4763 66.7842 51.6088 64.6138 52.4339 59.8288C52.8753 57.2715 53.6329 51.1646 53.9891 47.889C54.7411 48.1235 55.7093 48.2309 56.7558 48.2307C58.9386 48.2307 61.4572 47.767 63.0367 47.0338C64.811 46.2099 68.0131 44.1876 67.4324 42.4309ZM55.7377 20.2959C55.7214 21.2629 55.5883 22.1408 55.4472 23.0573C55.2954 24.0428 55.1384 25.0618 55.0988 26.2988C55.0598 27.5026 55.2101 28.7542 55.3556 29.9644C55.6494 32.409 55.9509 34.9259 54.7838 37.4093C54.6024 37.0872 54.4273 36.7357 54.2667 36.3465C54.1217 35.9948 53.8068 35.43 53.3708 34.6482C51.674 31.6054 47.7007 24.4799 49.7347 21.5722C50.3404 20.7066 51.878 19.817 55.7377 20.2959ZM51.0594 3.9131C56.716 4.03804 61.1905 6.1542 64.3587 10.2025C66.7886 13.3076 64.1129 27.4368 56.3671 39.626C56.2906 39.5288 56.2127 39.4306 56.1321 39.33C56.0999 39.2897 56.0672 39.2488 56.0341 39.2074C58.0357 35.9017 57.6442 32.6312 57.2959 29.7313C57.1528 28.5413 57.0176 27.4173 57.052 26.3617C57.0876 25.2424 57.2355 24.2828 57.3785 23.3548C57.5546 22.2111 57.7334 21.0278 57.684 19.6328C57.7209 19.4865 57.7358 19.3136 57.7165 19.1084C57.5905 17.7706 56.0633 13.7673 52.9502 10.1434C51.2476 8.16156 48.7643 5.9435 45.3738 4.44751C46.8322 4.14527 48.8266 3.8634 51.0594 3.9131ZM19.406 46.6078C17.8417 48.4886 16.7613 48.1282 16.4061 48.0099C14.0911 47.2376 11.4053 42.3452 9.03721 34.5868C6.98815 27.8737 5.79063 21.1233 5.69595 19.2303C5.39668 13.2438 6.84785 9.07157 10.0093 6.82953C15.1543 3.18085 23.6133 5.36473 27.0122 6.47243C26.9633 6.52055 26.9125 6.5657 26.8641 6.61461C21.2866 12.2476 21.4189 21.8717 21.4325 22.4598C21.4321 22.6868 21.451 23.0082 21.4772 23.4503C21.5732 25.0689 21.7517 28.0816 21.2747 31.4934C20.8312 34.6638 21.8085 37.7669 23.9555 40.007C24.1778 40.2389 24.4098 40.4567 24.6495 40.6615C23.6937 41.6851 21.6167 43.9483 19.406 46.6078ZM25.3664 38.655C23.6359 36.8495 22.85 34.338 23.2099 31.7639C23.7138 28.1598 23.5277 25.0209 23.4278 23.3346C23.4139 23.0987 23.4015 22.8919 23.3941 22.7287C24.209 22.0063 27.985 19.983 30.6777 20.6C31.9067 20.8815 32.6553 21.7182 32.9666 23.1576C34.5778 30.6091 33.18 33.7149 32.0567 36.2105C31.8252 36.7247 31.6065 37.2107 31.4197 37.7136L31.275 38.1022C30.9084 39.085 30.5675 39.9986 30.3562 40.8663C28.5167 40.8606 26.7271 40.0749 25.3664 38.655ZM25.6487 48.7043C25.1116 48.5701 24.6285 48.337 24.3451 48.1437C24.5818 48.0323 25.0031 47.8808 25.7338 47.7303C29.2703 47.0022 29.8163 46.4885 31.0089 44.9741C31.2825 44.627 31.5924 44.2334 32.0216 43.754L32.0221 43.7534C32.6615 43.0376 32.9539 43.1589 33.4842 43.3789C33.9141 43.5568 34.3326 44.0955 34.5024 44.6883C34.5827 44.9683 34.673 45.4999 34.3778 45.9133C31.8863 49.4016 28.256 49.3568 25.6487 48.7043ZM44.1559 65.9266C39.8297 66.8535 38.298 64.6461 37.2886 62.1227C36.6371 60.4934 36.317 53.147 36.5441 45.0343C36.5471 44.9263 36.5317 44.8221 36.5019 44.7241C36.4761 44.5349 36.4363 44.3435 36.3811 44.1508C36.0431 42.9704 35.2199 41.9829 34.2323 41.5736C33.8399 41.411 33.1196 41.1127 32.2541 41.3341C32.4388 40.5736 32.7589 39.715 33.1058 38.7851L33.2514 38.3938C33.4154 37.9528 33.6209 37.496 33.8385 37.0126C35.0139 34.4012 36.6237 30.8246 34.8766 22.7445C34.2221 19.7182 32.0368 18.2404 28.7239 18.5835C26.7377 18.7891 24.9208 19.5904 24.0146 20.0499C23.8197 20.1487 23.6415 20.244 23.475 20.3369C23.7279 17.2876 24.6837 11.589 28.2585 7.98363C30.5092 5.71369 33.5068 4.59267 37.1591 4.65302C44.3553 4.77091 48.97 8.46396 51.5743 11.5414C53.8184 14.1934 55.0336 16.8646 55.5187 18.3053C51.8715 17.9345 49.3911 18.6546 48.1335 20.4522C45.398 24.3625 49.6301 31.9524 51.6641 35.5999C52.0371 36.2685 52.3591 36.8462 52.4604 37.0917C53.1227 38.697 53.9802 39.7686 54.6063 40.551C54.7982 40.7907 54.9844 41.0232 55.126 41.2262C54.0214 41.5448 52.0372 42.2804 52.218 45.9583C52.0722 47.8039 51.0351 56.4441 50.5083 59.4967C49.8129 63.5296 48.3288 65.0319 44.1559 65.9266ZM62.2139 45.2615C61.0844 45.7858 59.1941 46.1792 57.3984 46.2635C55.415 46.3565 54.4055 46.0414 54.168 45.8476C54.0564 43.5557 54.9096 43.3162 55.8124 43.0627C55.9543 43.0227 56.0927 42.984 56.2263 42.9373C56.3094 43.0048 56.4003 43.0719 56.4998 43.1376C58.094 44.1898 60.9374 44.3033 64.9513 43.4748C64.966 43.4717 64.9808 43.4689 64.9954 43.4659C64.454 43.9721 63.5276 44.6515 62.2139 45.2615Z" fill="white"/>
<defs>
<linearGradient id="paint0_linear_1368_224" x1="35.6583" y1="3.02759" x2="35.6583" y2="66.9929" gradientUnits="userSpaceOnUse">
<stop stop-color="#41A66C"/>
<stop offset="1" stop-color="#2D9AA6"/>
</linearGradient>
</defs>
</svg>
