<svg width="71" height="70" viewBox="0 0 71 70" fill="none" xmlns="http://www.w3.org/2000/svg">
<path fill-rule="evenodd" clip-rule="evenodd" d="M55.4802 52.9594L28.1999 61.0925C28.0099 61.1501 27.8081 61.1575 27.6143 61.1138C27.4206 61.0702 27.2415 60.977 27.0945 60.8435C26.9475 60.7099 26.8376 60.5405 26.7756 60.3518C26.7137 60.1631 26.7017 59.9616 26.7409 59.7669L36.4884 12.7116C36.5296 12.5193 36.63 12.3449 36.7755 12.2127C36.921 12.0805 37.1042 11.9972 37.2995 11.9745C37.4948 11.9518 37.6923 11.9908 37.8642 12.0862C38.0361 12.1815 38.1739 12.3283 38.2581 12.5059L56.3027 51.1394C56.3836 51.3111 56.4263 51.4984 56.4278 51.6883C56.4293 51.8782 56.3896 52.0661 56.3114 52.2391C56.2332 52.4122 56.1184 52.5662 55.9749 52.6905C55.8314 52.8148 55.6626 52.9066 55.4802 52.9594ZM60.1593 51.0387L39.2709 6.30655C39.0141 5.75482 38.6119 5.28347 38.1074 4.94315C37.6029 4.60284 37.0152 4.40641 36.4074 4.37499C35.7996 4.33319 35.1921 4.45995 34.6517 4.74132C34.1114 5.0227 33.6592 5.44775 33.3449 5.96968L10.6934 42.98C10.3478 43.5402 10.1681 44.1869 10.1751 44.8451C10.1821 45.5032 10.3754 46.146 10.7327 46.6987L21.8102 63.9997C22.2276 64.6462 22.8433 65.1402 23.5649 65.4076C24.2866 65.6749 25.0754 65.7013 25.8134 65.4828L57.9696 55.895C58.4553 55.7535 58.9045 55.5085 59.2864 55.1767C59.6682 54.8449 59.9736 54.4343 60.1815 53.9732C60.3894 53.512 60.4949 53.0113 60.4907 52.5055C60.4865 51.9996 60.3727 51.5007 60.1571 51.0431L60.1593 51.0387Z" fill="url(#paint0_linear_1368_272)"/>
<defs>
<linearGradient id="paint0_linear_1368_272" x1="35.3329" y1="4.36719" x2="35.3329" y2="65.6294" gradientUnits="userSpaceOnUse">
<stop stop-color="#41A66C"/>
<stop offset="1" stop-color="#2D9AA6"/>
</linearGradient>
</defs>
</svg>
