<svg width="71" height="70" viewBox="0 0 71 70" fill="none" xmlns="http://www.w3.org/2000/svg">
<path d="M41.5268 34.9473C41.5268 31.8096 38.9033 29.2655 35.6667 29.2655C32.4305 29.2655 29.8066 31.8096 29.8066 34.9473C29.8066 38.0855 32.4305 40.6293 35.6667 40.6293C38.9033 40.6293 41.5268 38.0855 41.5268 34.9473Z" fill="url(#paint0_linear_1368_265)"/>
<path fill-rule="evenodd" clip-rule="evenodd" d="M54.6988 24.3987C55.9363 19.523 57.4918 10.4814 52.0082 7.41597C46.5502 4.36395 39.4476 10.2122 35.6971 13.7226C31.9576 10.2472 24.6555 4.42393 19.1765 7.49905C13.7206 10.5613 15.4031 19.453 16.668 24.3593C11.5786 25.7609 2.85419 28.7796 2.85419 34.9473C2.85419 41.0974 11.5695 44.3817 16.6288 45.782C15.3592 50.7154 13.761 59.4801 19.2238 62.5356C24.7233 65.6101 32.0026 59.9255 35.7879 56.3767C39.5624 59.9077 46.5968 65.6296 52.0559 62.5656C57.5321 59.4919 56.1058 50.5715 54.8408 45.6367C59.7452 44.2334 68.4792 41.0207 68.4792 34.9473C68.4792 28.8389 59.708 25.7957 54.6988 24.3987ZM54.0771 43.0216C53.2465 40.4722 52.1254 37.7613 50.7541 34.9608C52.0631 32.2265 53.1407 29.5505 53.9481 27.0176C57.6202 28.0499 65.6759 30.4091 65.6759 34.9473C65.6759 39.5281 57.9455 41.9097 54.0771 43.0216ZM50.6511 60.2131C46.5779 62.4991 40.5275 57.0272 37.74 54.427C39.5893 52.4659 41.4373 50.1861 43.2409 47.6545C46.4137 47.3817 49.4108 46.9354 52.1289 46.3262C53.0192 49.8168 54.7421 57.9169 50.6511 60.2131ZM20.6246 60.1805C16.5511 57.9031 18.413 50.0819 19.347 46.4478C22.0349 47.0245 25.0105 47.4392 28.1907 47.6892C30.0061 50.1664 31.9077 52.4433 33.8239 54.4375C31.4564 56.658 24.7172 62.4684 20.6246 60.1805ZM5.65745 34.9473C5.65745 30.3494 13.665 28.0072 17.4208 26.9776C18.2422 29.5673 19.3194 32.2752 20.6194 35.0136C19.3025 37.7926 18.2099 40.5433 17.381 43.1637C13.7998 42.1697 5.65745 39.548 5.65745 34.9473ZM20.581 9.85149C24.6712 7.55597 31.0176 13.1465 33.7327 15.6628C31.8263 17.6477 29.9422 19.9076 28.1423 22.3705C25.056 22.6478 22.1015 23.0932 19.3853 23.69C18.3663 19.7328 16.4953 12.1445 20.581 9.85149ZM45.2464 25.3249C47.3403 25.5811 49.3464 25.9219 51.2301 26.3388C50.6646 28.0962 49.9598 29.934 49.1297 31.8178C47.9263 29.6041 46.6346 27.4347 45.2464 25.3249ZM35.698 17.6052C36.991 18.9634 38.286 20.48 39.56 22.1255C36.9759 22.0069 34.3877 22.0065 31.8036 22.1237C33.0787 20.4935 34.3848 18.9791 35.698 17.6052ZM22.2278 31.8159C21.4114 29.9386 20.7129 28.0927 20.1425 26.3102C22.0149 25.9039 24.0117 25.5719 26.092 25.3199C24.6999 27.4251 23.4103 29.5936 22.2278 31.8159ZM26.1517 44.7687C24.0027 44.5362 21.9757 44.221 20.1038 43.8259C20.6833 42.012 21.3971 40.1264 22.231 38.2086C23.4298 40.4541 24.739 42.6436 26.1517 44.7687ZM35.7756 52.4814C34.4469 51.0912 33.1215 49.5537 31.8272 47.8999C34.4259 47.9988 37.0297 47.999 39.6283 47.8866C38.3503 49.5705 37.0599 51.1103 35.7756 52.4814ZM49.1563 38.1111C50.0335 40.0496 50.7729 41.925 51.3602 43.7082C49.4573 44.1293 47.4031 44.4684 45.2385 44.7202C46.637 42.5703 47.9493 40.3672 49.1563 38.1111ZM41.6764 45.0496C37.7013 45.325 33.7014 45.3219 29.725 45.0721C27.4655 41.872 25.4541 38.5066 23.7179 35.0127C25.4458 31.526 27.4426 28.1671 29.6913 24.9721C33.6706 24.6805 37.6744 24.6796 41.6537 24.9738C43.8832 28.1687 45.8768 31.5188 47.6448 34.974C45.8978 38.4589 43.8906 41.8246 41.6764 45.0496ZM50.608 9.77068C54.6992 12.0587 52.8782 20.1846 51.9843 23.7182C49.2618 23.109 46.3052 22.6557 43.2098 22.374C41.4065 19.8845 39.5381 17.6207 37.6626 15.6614C40.4125 13.0909 46.5563 7.50507 50.608 9.77068Z" fill="url(#paint1_linear_1368_265)"/>
<defs>
<linearGradient id="paint0_linear_1368_265" x1="35.6667" y1="29.2655" x2="35.6667" y2="40.6293" gradientUnits="userSpaceOnUse">
<stop stop-color="#41A66C"/>
<stop offset="1" stop-color="#2D9AA6"/>
</linearGradient>
<linearGradient id="paint1_linear_1368_265" x1="35.6667" y1="6.5625" x2="35.6667" y2="63.4375" gradientUnits="userSpaceOnUse">
<stop stop-color="#41A66C"/>
<stop offset="1" stop-color="#2D9AA6"/>
</linearGradient>
</defs>
</svg>
