<svg width="70" height="70" viewBox="0 0 70 70" fill="none" xmlns="http://www.w3.org/2000/svg">
<g clip-path="url(#clip0_1536_6)">
<path d="M69.9781 41.825C69.9562 42.4966 69.0659 43.2381 67.2547 44.1831C63.5184 46.1322 44.1722 54.0947 40.0465 56.2363C35.9231 58.3888 33.6437 58.3669 30.3844 56.805C27.125 55.2563 6.53843 46.9263 2.82405 45.1609C0.977803 44.2728 0.0328027 43.5313 -0.00219727 42.8247V49.8991C-0.00219727 50.6056 0.977803 51.345 2.82405 52.2353C6.53843 54.0138 27.1381 62.3306 30.3844 63.8794C33.6437 65.4413 35.9209 65.4631 40.0465 63.3106C44.17 61.1691 63.5162 53.2044 67.2547 51.2575C69.1578 50.2775 70 49.5031 70 48.8075C70 48.1469 70 41.8338 70 41.8338C70 41.8228 69.9891 41.8228 69.9781 41.8228V41.825ZM69.9781 30.2947C69.9431 30.9553 69.0659 31.6969 67.2547 32.6528C63.5184 34.5888 44.1722 42.5534 40.0465 44.695C35.9231 46.8475 33.6437 46.8256 30.3844 45.2769C27.125 43.715 6.53843 35.3981 2.82405 33.6219C0.977803 32.7447 0.0328027 31.9922 -0.00219727 31.2856V38.36C-0.00219727 39.0666 0.977803 39.8191 2.82405 40.6963C6.53843 42.4747 27.125 50.7916 30.3844 52.3513C33.6437 53.9 35.9209 53.9241 40.0465 51.7825C44.17 49.63 63.5162 41.6763 67.2547 39.7294C69.1578 38.7384 70 37.9641 70 37.2684C70 36.6078 70 30.2947 70 30.2947C70 30.2947 69.9891 30.2947 69.9781 30.2947ZM69.9781 18.3203C70.0131 17.6138 69.09 16.9881 67.2087 16.3034C63.5753 14.9713 44.3319 7.31501 40.6503 5.95876C36.9709 4.61345 35.4659 4.67032 31.1369 6.22126C26.8078 7.78313 6.3328 15.8134 2.68843 17.2375C0.86624 17.955 -0.0240723 18.6156 0.0109277 19.3222V26.3966C0.0109277 27.1031 0.97999 27.8425 2.83718 28.7328C6.54062 30.5113 27.1381 38.8281 30.3975 40.3878C33.6437 41.9366 35.9341 41.9606 40.0597 39.8059C44.1722 37.6644 63.5294 29.6997 67.2678 27.7638C69.16 26.7728 70.0022 25.9984 70.0022 25.3028C70.0022 24.6422 70.0022 18.3181 70.0022 18.3181L69.9781 18.3203ZM25.0644 25.0206L41.2891 22.5378L36.3891 29.715L25.0644 25.0206ZM60.9415 18.5478L50.3125 22.7522L40.7203 18.9591L51.3384 14.7656L60.9415 18.5478ZM32.7775 11.5981L31.2047 8.70407L36.1047 10.6181L40.7181 9.11313L39.4647 12.0991L44.17 13.8644L38.1084 14.49L36.7412 17.7603L34.5537 14.1138L27.5472 13.4881L32.7775 11.5981ZM20.6894 15.6888C25.4866 15.6888 29.3606 17.1938 29.3606 19.0378C29.3606 20.895 25.4756 22.3978 20.6894 22.3978C15.9031 22.3978 12.0181 20.8928 12.0181 19.0378C12.0181 17.1916 15.9031 15.6888 20.6894 15.6888Z" fill="url(#paint0_linear_1536_6)"/>
</g>
<defs>
<linearGradient id="paint0_linear_1536_6" x1="35" y1="5.00061" x2="35" y2="64.9955" gradientUnits="userSpaceOnUse">
<stop stop-color="#2D9AA6"/>
<stop offset="1" stop-color="#41A66C"/>
</linearGradient>
<clipPath id="clip0_1536_6">
<rect width="70" height="70" fill="white"/>
</clipPath>
</defs>
</svg>
