<svg width="50" height="50" viewBox="0 0 50 50" fill="none" xmlns="http://www.w3.org/2000/svg">
<path d="M27.9413 10.0235V39.3382C27.9424 39.5321 27.9052 39.7242 27.8318 39.9036C27.7584 40.083 27.6502 40.2461 27.5136 40.3836C27.3769 40.521 27.2144 40.6301 27.0354 40.7045C26.8564 40.779 26.6645 40.8173 26.4707 40.8173C26.2768 40.8173 26.0849 40.779 25.906 40.7045C25.727 40.6301 25.5645 40.521 25.4278 40.3836C25.2912 40.2461 25.183 40.083 25.1096 39.9036C25.0362 39.7242 24.999 39.5321 25.0001 39.3382V10.0235L14.2766 21.4176C14.1443 21.562 13.9834 21.6774 13.8042 21.7563C13.6249 21.8352 13.4312 21.8759 13.2354 21.8759C13.0396 21.8759 12.8459 21.8352 12.6666 21.7563C12.4874 21.6774 12.3265 21.562 12.1942 21.4176C11.9175 21.1164 11.7639 20.7223 11.7639 20.3132C11.7639 19.9042 11.9175 19.51 12.1942 19.2088L25.4295 5.14413C25.5618 4.99969 25.7226 4.88436 25.9019 4.80545C26.0811 4.72654 26.2748 4.68579 26.4707 4.68579C26.6665 4.68579 26.8602 4.72654 27.0395 4.80545C27.2187 4.88436 27.3796 4.99969 27.5119 5.14413L40.7472 19.2088C41.0231 19.5099 41.1762 19.9034 41.1762 20.3118C41.1762 20.7201 41.0231 21.1136 40.7472 21.4147C40.6149 21.5591 40.454 21.6745 40.2748 21.7534C40.0955 21.8323 39.9018 21.873 39.706 21.873C39.5101 21.873 39.3164 21.8323 39.1372 21.7534C38.9579 21.6745 38.7971 21.5591 38.6648 21.4147L27.9413 10.0265V10.0235Z" fill="#121212"/>
</svg>
