<svg width="70" height="70" viewBox="0 0 70 70" fill="none" xmlns="http://www.w3.org/2000/svg">
<g clip-path="url(#clip0_1543_2)">
<path fill-rule="evenodd" clip-rule="evenodd" d="M55.3736 49.4238C54.5301 51.8115 51.177 53.7868 48.503 54.3645C46.6725 54.7531 44.2855 55.0606 36.2425 51.7275C27.209 47.9849 14.665 34.6534 14.665 25.7817C14.665 21.2654 17.269 16.0063 21.8225 16.0063C24.0135 16.0063 24.4965 16.0491 25.2175 17.7786C26.061 19.8162 28.119 24.8364 28.364 25.3511C29.3755 27.4622 27.335 28.6981 25.8545 30.5361C25.382 31.0893 24.8465 31.6875 25.445 32.7168C26.04 33.7251 28.098 37.0792 31.122 39.7715C35.028 43.2515 38.1955 44.3626 39.3295 44.8352C40.173 45.1853 41.181 45.1038 41.797 44.4456C42.5775 43.6018 43.547 42.2019 44.534 40.8225C45.2305 39.8352 46.116 39.7119 47.0435 40.062C47.67 40.2791 55.6325 43.9769 55.9685 44.5686C56.217 44.9992 56.2171 47.0361 55.3736 49.4238ZM35.007 0H34.9895C15.694 0 0 15.6987 0 35C0 42.6533 2.46752 49.7537 6.66402 55.5129L2.30302 68.5183L15.7535 64.2202C21.287 67.8823 27.8915 70 35.007 70C54.3025 70 70 54.3013 70 35C70 15.6987 54.3025 0 35.007 0Z" fill="#41A66C"/>
</g>
<defs>
<clipPath id="clip0_1543_2">
<rect width="70" height="70" fill="white"/>
</clipPath>
</defs>
</svg>
