<svg width="70" height="70" viewBox="0 0 70 70" fill="none" xmlns="http://www.w3.org/2000/svg">
<path d="M35 65.625C51.9137 65.625 65.625 51.9137 65.625 35C65.625 18.0863 51.9137 4.375 35 4.375C18.0863 4.375 4.375 18.0863 4.375 35C4.375 51.9137 18.0863 65.625 35 65.625Z" fill="url(#paint0_linear_1368_298)"/>
<path d="M14.1211 35C14.1211 43.2738 18.9336 50.4 25.8932 53.7873L15.9351 26.5042C14.7393 29.1769 14.1212 32.072 14.1211 35ZM35 55.8788C37.4248 55.8788 39.7569 55.4531 41.9412 54.6943L41.7931 54.4167L35.3701 36.8325L29.1139 55.0274C30.9649 55.5826 32.9455 55.8788 35 55.8788ZM37.8689 25.2083L45.4208 47.6606L47.5125 40.7011C48.4011 37.8136 49.0858 35.7405 49.0858 33.945C49.0858 31.3537 48.1604 29.5767 47.383 28.2069C46.3094 26.467 45.3283 25.0049 45.3283 23.3019C45.3283 21.3769 46.772 19.6 48.8451 19.6H49.1043C45.2572 16.0682 40.2224 14.1125 35 14.1211C31.542 14.1205 28.1383 14.9795 25.0946 16.6208C22.0511 18.2622 19.4632 20.6344 17.5639 23.5239L18.8966 23.5611C21.0808 23.5611 24.4495 23.2833 24.4495 23.2833C25.597 23.228 25.7268 24.8752 24.5976 25.0049C24.5976 25.0049 23.4686 25.153 22.1913 25.2083L29.8174 47.8271L34.3893 34.13L31.1314 25.2083C30.4019 25.1681 29.6734 25.1064 28.9474 25.0233C27.8182 24.9493 27.9479 23.228 29.0769 23.2833C29.0769 23.2833 32.5198 23.5611 34.5743 23.5611C36.7583 23.5611 40.1271 23.2833 40.1271 23.2833C41.2562 23.228 41.4043 24.8752 40.2752 25.0049C40.2752 25.0049 39.1462 25.1344 37.8689 25.2083ZM45.495 53.0469C48.6535 51.2103 51.2748 48.5769 53.097 45.4101C54.9192 42.2432 55.8784 38.6538 55.8788 35C55.8788 31.372 54.9533 27.9663 53.3245 24.9863C53.6552 28.2649 53.1589 31.5742 51.8807 34.6113L45.495 53.0469ZM35 59.0625C28.6182 59.0625 22.4978 56.5274 17.9853 52.0148C13.4727 47.5022 10.9375 41.3818 10.9375 35C10.9375 28.6182 13.4727 22.4978 17.9853 17.9853C22.4978 13.4727 28.6182 10.9375 35 10.9375C41.3818 10.9375 47.5022 13.4727 52.0148 17.9853C56.5274 22.4978 59.0625 28.6182 59.0625 35C59.0625 41.3818 56.5274 47.5022 52.0148 52.0148C47.5022 56.5274 41.3818 59.0625 35 59.0625Z" fill="white"/>
<defs>
<linearGradient id="paint0_linear_1368_298" x1="35" y1="4.375" x2="35" y2="65.625" gradientUnits="userSpaceOnUse">
<stop stop-color="#41A66C"/>
<stop offset="1" stop-color="#2D9AA6"/>
</linearGradient>
</defs>
</svg>
