<svg width="30" height="30" viewBox="0 0 30 30" fill="none" xmlns="http://www.w3.org/2000/svg">
<g clip-path="url(#clip0_1347_36)">
<path fill-rule="evenodd" clip-rule="evenodd" d="M0 14.9995C0 20.9369 3.4501 26.068 8.45369 28.499L1.29848 8.89526C0.466896 10.76 0 12.8245 0 14.9995ZM25.126 14.2429C25.126 12.3885 24.4594 11.1051 23.8894 10.1066C23.129 8.86998 22.4156 7.82368 22.4156 6.58802C22.4156 5.20891 23.4609 3.92544 24.9347 3.92544C25.0013 3.92544 25.0641 3.93386 25.1288 3.93761C22.4606 1.49253 18.9045 0 14.9997 0C9.75893 0 5.1491 2.68883 2.46683 6.76052C2.81934 6.77177 3.15122 6.77834 3.43248 6.77834C5.00097 6.77834 7.43011 6.58802 7.43011 6.58802C8.23827 6.54021 8.33388 7.72899 7.52573 7.82368C7.52573 7.82368 6.71289 7.9193 5.80912 7.96711L11.2712 24.2145L14.5544 14.3695L12.2181 7.96711C11.4099 7.9193 10.644 7.82368 10.644 7.82368C9.83581 7.77586 9.93051 6.54021 10.7396 6.58802C10.7396 6.58802 13.2165 6.77834 14.6903 6.77834C16.2588 6.77834 18.688 6.58802 18.688 6.58802C19.497 6.54021 19.5917 7.72899 18.7836 7.82368C18.7836 7.82368 17.9698 7.9193 17.067 7.96711L22.4878 24.0908L23.985 19.0918C24.6319 17.0161 25.126 15.5264 25.126 14.2429ZM28.1624 7.80334C28.2271 8.28148 28.2637 8.79338 28.2637 9.34559C28.2637 10.8672 27.9787 12.5782 27.1227 14.7186L22.541 27.9649C27.0008 25.3651 30 20.5331 30 14.9998C30 12.3916 29.3334 9.93997 28.1624 7.80334ZM15.2632 16.3117L10.7621 29.3893C12.1065 29.7849 13.5278 30.0006 14.9997 30.0006C16.7463 30.0006 18.4217 29.6987 19.9808 29.1502C19.9414 29.0855 19.9039 29.018 19.8739 28.944L15.2632 16.3117Z" fill="url(#paint0_linear_1347_36)"/>
</g>
<defs>
<linearGradient id="paint0_linear_1347_36" x1="15" y1="0" x2="15" y2="30.0006" gradientUnits="userSpaceOnUse">
<stop stop-color="#41A66C"/>
<stop offset="1" stop-color="#2D9AA6"/>
</linearGradient>
<clipPath id="clip0_1347_36">
<rect width="30" height="30" fill="white"/>
</clipPath>
</defs>
</svg>
